<?xml version="1.0" encoding="UTF-8"?>
<svg version="1.1" xmlns="http://www.w3.org/2000/svg" width="456" height="456">
<path d="M0 0 C8.30193796 8.06120517 11.10314423 19.58442126 13.6875 30.5 C14.00267578 31.7478125 14.31785156 32.995625 14.64257812 34.28125 C17.18558018 44.70026065 17.18558018 44.70026065 15.75 48 C13.45681663 49.77714463 11.26787871 51.30131053 8.8125 52.8125 C8.16603516 53.23208984 7.51957031 53.65167969 6.85351562 54.08398438 C5.19602574 55.12873657 3.47616361 56.07310245 1.75 57 C1.09 56.67 0.43 56.34 -0.25 56 C-1.0079146 53.55677518 -1.64846359 51.16036488 -2.23828125 48.67578125 C-2.61868937 47.15678796 -2.99956398 45.63791144 -3.38085938 44.11914062 C-3.97279811 41.72226592 -4.55963714 39.32439273 -5.13745117 36.92407227 C-5.69835951 34.6083187 -6.2795611 32.29837427 -6.86328125 29.98828125 C-7.02806473 29.27867752 -7.19284821 28.56907379 -7.36262512 27.83796692 C-8.63435013 22.87130579 -10.43251349 19.59975541 -14.25 16 C-21.65910158 11.75406254 -29.35940179 13.0645253 -37.55078125 13.7734375 C-39.10737056 13.89463519 -40.66408749 14.01420294 -42.22091675 14.13227844 C-46.45251932 14.45768562 -50.68205919 14.80505365 -54.91155624 15.15664291 C-59.36823076 15.52373726 -63.82636489 15.87211604 -68.28442383 16.22192383 C-73.941318 16.66697623 -79.59799887 17.11433565 -85.25401306 17.57044983 C-98.65413111 18.64973601 -112.05820685 19.6599249 -125.46650887 20.63200378 C-131.73489752 21.08761961 -138.00273269 21.55079153 -144.27058315 22.01374435 C-149.35422715 22.38879273 -154.43808845 22.76006263 -159.52261353 23.12298584 C-164.3232082 23.46612707 -169.12274231 23.82156293 -173.92175674 24.18611717 C-175.6904651 24.31832424 -177.45950972 24.44611755 -179.22887802 24.56917763 C-181.65387112 24.73842372 -184.07718992 24.92331923 -186.50073242 25.11206055 C-187.20300115 25.15731558 -187.90526987 25.20257061 -188.62881947 25.24919701 C-193.10241121 25.61937452 -196.43764062 26.61990189 -200.25 29 C-202.15206849 32.05039221 -202.15206849 32.05039221 -203.25 35 C-194.76311506 35.15830181 -186.39868255 34.66394289 -177.94116211 33.99023438 C-176.53709247 33.88148792 -175.13299301 33.77312605 -173.72886658 33.66511536 C-170.72718714 33.43343997 -167.72572565 33.19917447 -164.7244091 32.96284485 C-159.97023534 32.58859528 -155.21557583 32.22079058 -150.46083069 31.85388184 C-141.22594127 31.14041995 -131.99152156 30.42099673 -122.75717926 29.70049286 C-110.99981826 28.78315389 -99.24236694 27.8670563 -87.4842568 26.95936251 C-82.76590101 26.59488643 -78.04785784 26.2266616 -73.33002651 25.85546112 C-70.38742163 25.62470264 -67.44457519 25.3971465 -64.50165749 25.17041588 C-62.50438021 25.01557517 -60.50740139 24.85689939 -58.51043701 24.69807434 C-33.03785597 22.74879308 -33.03785597 22.74879308 -22.8125 31.4375 C-21.60549681 32.60517111 -20.41515291 33.79056575 -19.25 35 C-18.5075 35.7425 -17.765 36.485 -17 37.25 C-12.73890842 43.94600106 -7.78238674 55.97624552 -9.25 64 C-11.29638627 66.13048434 -13.66784311 67.68962241 -16.125 69.3125 C-17.10146484 69.9940918 -17.10146484 69.9940918 -18.09765625 70.68945312 C-22.92657425 74 -22.92657425 74 -25.25 74 C-25.92321284 71.75194998 -26.58834123 69.50147776 -27.25 67.25 C-27.62125 65.99703125 -27.9925 64.7440625 -28.375 63.453125 C-29.25 60 -29.25 60 -29.25 56 C-30.73005272 56.1160836 -30.73005272 56.1160836 -32.24000549 56.23451233 C-41.55253755 56.96390713 -50.86566448 57.68523145 -60.17942905 58.39872074 C-64.96735608 58.76576334 -69.75503097 59.13561573 -74.54223633 59.51196289 C-79.16475966 59.87525835 -83.78780401 60.23107699 -88.41129875 60.5817852 C-90.17247921 60.71668487 -91.93345784 60.85424767 -93.69421577 60.99455452 C-96.16618129 61.19107033 -98.6387041 61.37798385 -101.11157227 61.56274414 C-101.83446442 61.62244385 -102.55735657 61.68214355 -103.30215454 61.74365234 C-107.82621741 62.06906616 -111.81430847 61.7819439 -116.25 61 C-116.9375 58.6875 -116.9375 58.6875 -117.25 56 C-116.23258972 54.38774109 -116.23258972 54.38774109 -114.25 53 C-111.72168091 52.5468811 -109.38997191 52.27151553 -106.84106445 52.10864258 C-106.08960144 52.04968307 -105.33813843 51.99072357 -104.56390381 51.92997742 C-102.08115626 51.7384429 -99.59745938 51.5664263 -97.11328125 51.39453125 C-95.39111967 51.26549635 -93.66904873 51.13524655 -91.94706726 51.00382996 C-87.41545562 50.66127722 -82.88279968 50.33525733 -78.34973145 50.01263428 C-73.72394881 49.68048473 -69.09934061 49.3327572 -64.47460938 48.98632812 C-55.40082267 48.3089438 -46.32585685 47.6490149 -37.25 47 C-45.39633778 42.08708031 -58.48718011 45.18974976 -67.54176903 45.92597961 C-69.66652236 46.09871341 -71.79169962 46.26507593 -73.91706848 46.43005371 C-78.42432987 46.78109788 -82.93092194 47.14030761 -87.4375 47.5 C-92.67914436 47.91729053 -97.92103949 48.33109536 -103.16341591 48.73908997 C-105.23847021 48.90197212 -107.31309791 49.06964538 -109.38774109 49.2376709 C-116.35949079 49.7834778 -123.25626592 50.16183996 -130.25 50 C-130.53738037 50.59748047 -130.82476074 51.19496094 -131.12084961 51.81054688 C-132.72178467 54.91480322 -134.76969284 57.67743037 -136.8125 60.5 C-137.25070068 61.10932373 -137.68890137 61.71864746 -138.14038086 62.34643555 C-149.92121487 78.67121487 -149.92121487 78.67121487 -152.25 81 C-157.28265073 81.52483358 -159.57471837 80.53424165 -163.5 77.4375 C-168.01110343 73.93505207 -172.61076195 70.77078217 -177.44921875 67.73828125 C-179.25 66 -179.25 66 -179.64453125 63.41796875 C-179.25 61 -179.25 61 -177.25 59 C-171.56469057 59.12652766 -167.85201382 61.90863464 -163.375 65.0625 C-162.68664062 65.53494141 -161.99828125 66.00738281 -161.2890625 66.49414062 C-159.60289022 67.65338407 -157.92552837 68.82542477 -156.25 70 C-153.1101679 66.10455411 -150.04475272 62.15718486 -147 58.1875 C-146.54109375 57.59001953 -146.0821875 56.99253906 -145.609375 56.37695312 C-144.48913774 54.91831086 -143.36950607 53.45920353 -142.25 52 C-148.13586654 52.40831927 -154.02168791 52.81728193 -159.9074707 53.22680664 C-161.9042036 53.36564964 -163.90094813 53.50432556 -165.89770508 53.64282227 C-176.68492091 54.39114653 -187.47035863 55.14853312 -198.25 56 C-194.91096717 71.77862842 -190.95317611 87.40185495 -187.00742698 103.03701401 C-186.05756677 106.80268284 -185.11026509 110.56899546 -184.16255188 114.33520508 C-182.56985499 120.66288192 -180.97512216 126.99004295 -179.37915039 133.31689453 C-177.55302215 140.55625617 -175.73017939 147.7964389 -173.90911931 155.03707695 C-172.13631666 162.08548054 -170.36105016 169.1332615 -168.58475685 176.18078613 C-167.83895298 179.13997991 -167.09396346 182.09937672 -166.34970665 185.05895996 C-164.32213729 193.11922657 -162.28071973 201.17572034 -160.21578598 209.22650146 C-159.56685357 211.76199643 -158.9219165 214.298517 -158.28079605 216.83599854 C-157.36229011 220.46304479 -156.42722469 224.08542034 -155.48754883 227.70703125 C-155.21870471 228.78119797 -154.94986059 229.85536469 -154.67286968 230.96208191 C-152.98035163 237.391461 -151.30532402 241.72809239 -145.8125 245.8125 C-136.22049812 249.00983396 -124.48388208 246.77593088 -114.55541992 245.99023438 C-113.13483371 245.88143645 -111.7142139 245.77307649 -110.29356384 245.66511536 C-106.48005534 245.37408772 -102.66703948 245.07702411 -98.8540895 244.77877998 C-94.85322213 244.46690184 -90.85191962 244.16070808 -86.85066223 243.85388184 C-79.29301752 243.27348938 -71.7357712 242.68806972 -64.17865878 242.10079145 C-55.56697401 241.43181042 -46.95485433 240.76851321 -38.34269559 240.10566616 C-20.6446431 238.74338368 -2.94714243 237.37405189 14.75 236 C12.25204214 224.4517669 9.55240518 212.97380234 6.62316132 201.5275116 C5.96496351 198.95539339 5.31025545 196.3824068 4.65631104 193.8092041 C3.27388156 188.37203438 1.88715883 182.93596473 0.5 177.5 C-1.12317201 171.13770567 -2.74455413 164.77496328 -4.36211395 158.41123962 C-5.00719201 155.87688123 -5.6551654 153.34327472 -6.30328369 150.80969238 C-6.69483793 149.27094926 -7.08626364 147.73217342 -7.47753906 146.19335938 C-7.65826965 145.49012039 -7.83900024 144.78688141 -8.02520752 144.06233215 C-9.25 139.22764297 -9.25 139.22764297 -9.25 137 C-7.78125 135.85498047 -7.78125 135.85498047 -5.75 134.6171875 C-5.028125 134.17246094 -4.30625 133.72773438 -3.5625 133.26953125 C-2.799375 132.80933594 -2.03625 132.34914062 -1.25 131.875 C-0.486875 131.40707031 0.27625 130.93914062 1.0625 130.45703125 C2.95449273 129.2981857 4.85034852 128.14623253 6.75 127 C9.12861654 130.56792481 9.93246933 134.07637323 10.93310547 138.18066406 C11.1415509 139.01532196 11.34999634 139.84997986 11.5647583 140.70993042 C12.25441573 143.47715667 12.93575654 146.24636258 13.6171875 149.015625 C14.0974424 150.94852123 14.57825531 152.88127889 15.05960083 154.81390381 C16.32902381 159.9163861 17.59159662 165.02053833 18.85253906 170.12512207 C20.61890542 177.27069926 22.39431989 184.41403418 24.16897583 191.55755615 C25.1130891 195.35793103 26.05457398 199.15894107 26.99386597 202.96051025 C29.47887549 213.00216685 32.0380338 223.01699967 34.75 233 C36.68109581 233.04289755 36.68109581 233.04289755 38.75 232 C41.62695174 227.25623798 42.10174598 224.25222948 40.81940269 218.90795612 C40.62070391 218.17802543 40.42200512 217.44809473 40.21728516 216.69604492 C40.02367716 215.91402049 39.83006916 215.13199606 39.63059425 214.32627392 C39.22321486 212.68932383 38.80632847 211.05471252 38.38031769 209.42251205 C37.78262929 207.12540476 37.21371339 204.82358523 36.65692139 202.51626587 C35.55474146 197.95874092 34.41586882 193.41085629 33.2734375 188.86328125 C32.85778824 187.20188139 32.44231557 185.54043735 32.02700806 183.87895203 C31.16627608 180.43756959 30.3039926 176.99658132 29.44042969 173.5559082 C28.33745812 169.16115486 27.23765446 164.76561631 26.13889122 160.36980915 C25.28536914 156.95599319 24.43061985 153.54248548 23.57545853 150.12907982 C23.169331 148.5077324 22.76348037 146.8863156 22.3579216 145.26482582 C21.79236604 143.00478459 21.22525992 140.74513803 20.65771484 138.4855957 C20.17617447 136.5651519 20.17617447 136.5651519 19.68490601 134.60591125 C19.04177224 132.12535893 18.35568715 129.65567419 17.63442993 127.19670105 C16.68235318 123.755496 16.2938718 122.25613908 17.75 119 C20.05891355 117.13769046 22.17267166 115.64037723 24.6875 114.125 C25.33396484 113.70992188 25.98042969 113.29484375 26.64648438 112.8671875 C28.30259462 111.83534311 30.02311551 110.9084459 31.75 110 C33.75 111 33.75 111 34.4489994 112.88273239 C34.66101179 113.7129755 34.87302418 114.54321861 35.09146118 115.39862061 C35.33822098 116.34883591 35.58498077 117.29905121 35.83921814 118.27806091 C36.10319901 119.32937698 36.36717987 120.38069305 36.63916016 121.46386719 C37.06387856 123.11525444 37.06387856 123.11525444 37.49717712 124.80000305 C38.43657428 128.46344991 39.36344498 132.12992399 40.2890625 135.796875 C40.93611592 138.342701 41.58344834 140.88845611 42.23104858 143.43414307 C43.59085049 148.78601393 44.9426861 154.13985753 46.29101562 159.49462891 C47.8432875 165.65848505 49.41291924 171.81773358 50.99108088 177.97500682 C52.51260342 183.91477732 54.01677108 189.85881611 55.51459885 195.80460358 C56.15154321 198.32385438 56.79342671 200.84186201 57.44044876 203.3585434 C58.34832777 206.89661067 59.23624263 210.43914802 60.11962891 213.98339844 C60.5216729 215.52393639 60.5216729 215.52393639 60.93183899 217.09559631 C63.10307273 225.95677824 65.18030502 237.03187203 60.19921875 245.28125 C55.84415792 250.44628171 50.89232313 253.18074172 44.1875 253.875 C42.70928685 253.94249832 41.22974051 253.99382154 39.75 254 C40.08 254.99 40.41 255.98 40.75 257 C41.41776471 264.5075832 41.88884757 271.23984321 37.17578125 277.453125 C31.46822444 283.64543321 25.85648373 285.23277931 17.66650391 285.94873047 C16.81045374 286.02877256 15.95440357 286.10881466 15.07241249 286.19128227 C0.93185724 287.48048166 -13.23088754 288.53699821 -27.38797808 289.62593699 C-29.93842656 289.82218725 -32.48883226 290.01898503 -35.03922653 290.21593857 C-43.06088845 290.83526644 -51.08268547 291.45279807 -59.10469496 292.067608 C-68.29014906 292.77159285 -77.47511229 293.48158983 -86.65970004 294.196787 C-93.81664034 294.75372809 -100.97398145 295.30531081 -108.13163984 295.85294521 C-112.38215841 296.17826574 -116.6324857 296.50570528 -120.88240433 296.83877945 C-172.3920897 300.86960318 -172.3920897 300.86960318 -183.625 291.625 C-189.39938206 286.44034206 -191.99400111 280.61768773 -193.953125 273.3046875 C-194.20177307 272.40547577 -194.45042114 271.50626404 -194.706604 270.57980347 C-198.50732896 256.64175204 -201.92050927 242.5973757 -205.39277267 228.57479477 C-207.06717053 221.81961276 -208.75167606 215.06693725 -210.43446159 208.31384087 C-210.86703755 206.57771309 -211.29948767 204.84155395 -211.73181343 203.10536385 C-215.96288176 186.11395197 -220.24488768 169.13571539 -224.55218506 152.16348267 C-225.49469162 148.4490835 -226.43487167 144.73410008 -227.37430954 141.01892376 C-230.86948017 127.19912147 -234.39468694 113.38973861 -238.04296875 99.609375 C-238.89044128 96.38431014 -239.7367924 93.15895314 -240.58279419 89.9335022 C-241.34250585 87.06038794 -242.12063331 84.19274299 -242.90014648 81.32495117 C-248.84261006 58.98240902 -248.84261006 58.98240902 -244.8125 48.5 C-242.0505623 43.9936806 -238.03335775 41.12182948 -233.25 39 C-229.89944194 38.29633621 -226.67014986 38.01428038 -223.25 38 C-223.58 37.01 -223.91 36.02 -224.25 35 C-224.91776471 27.4924168 -225.38884757 20.76015679 -220.67578125 14.546875 C-214.96822444 8.35456679 -209.35648373 6.76722069 -201.16650391 6.05126953 C-200.31045374 5.97122744 -199.45440357 5.89118534 -198.57241249 5.80871773 C-184.43185724 4.51951834 -170.26911246 3.46300179 -156.11202192 2.37406301 C-153.56157344 2.17781275 -151.01116774 1.98101497 -148.46077347 1.78406143 C-140.43911155 1.16473356 -132.41731453 0.54720193 -124.39530504 -0.067608 C-115.20985094 -0.77159285 -106.02488771 -1.48158983 -96.84029996 -2.196787 C-89.68335966 -2.75372809 -82.52601855 -3.30531081 -75.36836016 -3.85294521 C-71.11784159 -4.17826574 -66.8675143 -4.50570528 -62.61759567 -4.83877945 C-11.53656637 -8.83605926 -11.53656637 -8.83605926 0 0 Z M-220.25 58 C-224.33563862 61.5618388 -225.78586569 63.60992986 -226.25 69 C-225.9257433 71.72221635 -225.9257433 71.72221635 -225.16851807 74.46217346 C-224.90309456 75.52330667 -224.63767105 76.58443989 -224.36420441 77.67772865 C-224.06387047 78.82765486 -223.76353653 79.97758106 -223.45410156 81.16235352 C-222.99000507 82.99783532 -222.99000507 82.99783532 -222.5165329 84.87039757 C-221.8428105 87.5349225 -221.1617572 90.19742405 -220.47490692 92.85859489 C-219.37166548 97.13333855 -218.28448087 101.41206632 -217.19976807 105.69154358 C-216.0566378 110.19810103 -214.91221393 114.70431421 -213.76206589 119.20908642 C-211.10998417 129.59662047 -208.48966589 139.99165236 -205.89648438 150.39404297 C-205.63062987 151.46038558 -205.63062987 151.46038558 -205.35940456 152.54827046 C-204.64429769 155.41685341 -203.92928357 158.28545943 -203.2144866 161.15411961 C-201.07595492 169.73448056 -198.9243281 178.31155625 -196.77256107 186.88860583 C-194.76763071 194.88037211 -192.76545427 202.87280091 -190.77197266 210.86743164 C-189.13870195 217.41743325 -187.49967992 223.96596393 -185.85371614 230.51278788 C-184.9967545 233.9221485 -184.14249091 237.33212712 -183.29534149 240.74394035 C-182.36566867 244.48772866 -181.42313206 248.22821223 -180.47949219 251.96850586 C-180.21043564 253.06054825 -179.94137909 254.15259064 -179.66416931 255.27772522 C-176.41644706 268.52986045 -176.41644706 268.52986045 -167.25 278 C-158.77443128 280.73263378 -150.53933666 279.78656294 -141.80981445 279.08129883 C-140.15330124 278.95727533 -138.49670237 278.83439136 -136.84002686 278.71255493 C-132.36201245 278.3796633 -127.88545757 278.02998844 -123.40902734 277.67650437 C-118.71594846 277.30808584 -114.0218645 276.95290137 -109.32792664 276.59562683 C-101.44987021 275.99381031 -93.57273897 275.38085 -85.69604492 274.76147461 C-76.59547615 274.04602168 -67.49361697 273.34929386 -58.39085799 272.66231328 C-49.62219283 272.00002493 -40.85467814 271.32351624 -32.08757591 270.64087486 C-28.36120403 270.35103498 -24.63449135 270.06635232 -20.90740395 269.78586769 C-16.51926914 269.45506012 -12.13227501 269.11185775 -7.74584961 268.75912857 C-6.13775905 268.63183228 -4.52932354 268.50880927 -2.92055321 268.39041328 C-0.72154619 268.22786895 1.47567253 268.04976608 3.67314148 267.86775208 C4.90218547 267.77205335 6.13122946 267.67635462 7.3975172 267.57775593 C11.9081317 266.80041137 15.42035619 265.37396528 18.625 262.0625 C20.06923475 259.80629766 20.06923475 259.80629766 19.75 256 C11.60889643 255.82850553 3.57566769 256.36993359 -4.53710938 257.00976562 C-5.95088653 257.11847661 -7.36469046 257.22683975 -8.77851868 257.33488464 C-11.80420364 257.56680303 -14.82969514 257.80105669 -17.85505676 258.03715515 C-22.64698854 258.41100831 -27.4393609 258.77898453 -32.23181152 259.14611816 C-42.40488836 259.92626128 -52.57746777 260.71279216 -62.75 261.5 C-73.73510152 262.35008903 -84.72028287 263.19905533 -95.70603991 264.04063749 C-100.46201918 264.40519666 -105.21769548 264.77342304 -109.97316742 265.14453888 C-112.93981173 265.37528611 -115.90669429 265.60284925 -118.87364769 265.82958412 C-120.88762992 265.98444728 -122.90131866 266.14311277 -124.91499329 266.30192566 C-150.30273237 268.22900555 -150.30273237 268.22900555 -160.625 259.75 C-168.11477381 253.08509115 -170.55595477 244.51716634 -172.875 235.07421875 C-173.21329144 233.74052297 -173.5528124 232.40713857 -173.89343262 231.07403564 C-174.63471084 228.16138247 -175.36694643 225.24664984 -176.0925293 222.33004761 C-177.26876348 217.60301314 -178.46651503 212.881575 -179.66601562 208.16040039 C-184.1243107 190.58198689 -188.50536592 172.98416795 -192.89083862 155.38747692 C-194.53130365 148.80576394 -196.17360206 142.22451687 -197.8203125 135.6443634 C-197.9836376 134.99170567 -198.1469627 134.33904793 -198.31523705 133.66661268 C-198.97529845 131.0292261 -199.63544122 128.39185999 -200.29594803 125.75458491 C-202.27452313 117.85436414 -204.24389576 109.95198193 -206.19805861 102.04568565 C-207.58855532 96.42251739 -208.99199282 90.80264204 -210.39997864 85.18383026 C-210.98480397 82.84028109 -211.56507937 80.49559154 -212.14067078 78.14975739 C-212.93162751 74.92871559 -213.73820928 71.71198986 -214.54882812 68.49584961 C-214.77940414 67.54021464 -215.00998016 66.58457968 -215.24754333 65.59998608 C-215.57849754 64.30712421 -215.57849754 64.30712421 -215.9161377 62.98814392 C-216.10255074 62.23712874 -216.28896378 61.48611357 -216.4810257 60.71234035 C-216.73478722 60.14726804 -216.98854874 59.58219572 -217.25 59 C-218.24 58.67 -219.23 58.34 -220.25 58 Z " fill="#251B51" transform="translate(299.25,82)"/>
<path d="M0 0 C0.67668949 2.20528272 1.34093498 4.41438609 2 6.625 C2.37125 7.85476562 2.7425 9.08453125 3.125 10.3515625 C3.94551091 13.77279996 4.36232097 16.5061906 4 20 C1.625 21.5625 1.625 21.5625 -1 23 C-3.07395706 26.84326844 -3.11161637 29.37972294 -2.29345703 33.61404419 C-2.09141663 34.67029118 -1.88937622 35.72653816 -1.68121338 36.81479263 C-0.65166406 41.62874398 0.47731542 46.4056603 1.6953125 51.17529297 C1.95962979 52.22654578 2.22394709 53.2777986 2.49627399 54.36090755 C3.36789894 57.82251754 4.24638571 61.28234554 5.125 64.7421875 C5.7466625 67.20479133 6.36792555 69.66749603 6.98881531 72.1302948 C8.47480521 78.01946842 9.96535177 83.90747091 11.45845181 89.7948454 C12.65799995 94.52493402 13.85579832 99.25546243 15.05239868 103.98629761 C18.7702045 118.68413703 22.49446592 133.38032288 26.22614193 148.07464695 C28.19682096 155.83475164 30.16481022 163.59553107 32.13037109 171.35693359 C34.26675747 179.79151214 36.4107649 188.22411314 38.56323242 196.65460205 C39.30915314 199.57655724 40.05218952 202.49922176 40.79272461 205.42254639 C41.79527215 209.37881286 42.80893187 213.33213993 43.82421875 217.28515625 C44.10722336 218.40754196 44.39022797 219.52992767 44.68180847 220.68632507 C47.35874836 231.44067417 47.35874836 231.44067417 55 239 C63.48692204 241.71139411 71.70479168 240.78703731 80.44018555 240.08129883 C82.09669876 239.95727533 83.75329763 239.83439136 85.40997314 239.71255493 C89.88798755 239.3796633 94.36454243 239.02998844 98.84097266 238.67650437 C103.53405154 238.30808584 108.2281355 237.95290137 112.92207336 237.59562683 C120.80012979 236.99381031 128.67726103 236.38085 136.55395508 235.76147461 C145.65452385 235.04602168 154.75638303 234.34929386 163.85914201 233.66231328 C172.62780717 233.00002493 181.39532186 232.32351624 190.16242409 231.64087486 C193.88879597 231.35103498 197.61550865 231.06635232 201.34259605 230.78586769 C205.73073086 230.45506012 210.11772499 230.11185775 214.50415039 229.75912857 C216.11224095 229.63183228 217.72067646 229.50880927 219.32944679 229.39041328 C221.52845381 229.22786895 223.72567253 229.04976608 225.92314148 228.86775208 C227.15218547 228.77205335 228.38122946 228.67635462 229.6475172 228.57775593 C233.26703873 227.95397942 235.8544215 226.87669232 239 225 C240.28151659 223.04333592 240.28151659 223.04333592 240.9375 220.875 C241.90234375 218.7421875 241.90234375 218.7421875 243 217 C246 216 246 216 250 216 C251.02996094 215.98839844 252.05992187 215.97679687 253.12109375 215.96484375 C256.08233577 215.94042833 259.03909441 215.95624277 262 216 C263.99954039 221.99862118 264.25468158 229.5899733 262.05859375 235.55859375 C258.64590212 241.21788488 254.28109577 244.88849415 248 247 C245.29088975 247.4005429 242.64007102 247.71064184 239.91650391 247.94873047 C239.06045374 248.02877256 238.20440357 248.10881466 237.32241249 248.19128227 C223.18185724 249.48048166 209.01911246 250.53699821 194.86202192 251.62593699 C192.31157344 251.82218725 189.76116774 252.01898503 187.21077347 252.21593857 C179.18911155 252.83526644 171.16731453 253.45279807 163.14530504 254.067608 C153.95985094 254.77159285 144.77488771 255.48158983 135.59029996 256.196787 C128.43335966 256.75372809 121.27601855 257.30531081 114.11836016 257.85294521 C109.86784159 258.17826574 105.6175143 258.50570528 101.36759567 258.83877945 C49.8579103 262.86960318 49.8579103 262.86960318 38.625 253.625 C32.85061794 248.44034206 30.25599889 242.61768773 28.296875 235.3046875 C27.92390289 233.9558699 27.92390289 233.9558699 27.543396 232.57980347 C23.74267104 218.64175204 20.32949073 204.5973757 16.85722733 190.57479477 C15.18282947 183.81961276 13.49832394 177.06693725 11.81553841 170.31384087 C11.38296245 168.57771309 10.95051233 166.84155395 10.51818657 165.10536385 C6.28711824 148.11395197 2.00511232 131.13571539 -2.30218506 114.16348267 C-3.24469162 110.4490835 -4.18487167 106.73410008 -5.12430954 103.01892376 C-8.61948017 89.19912147 -12.14468694 75.38973861 -15.79296875 61.609375 C-16.64044128 58.38431014 -17.4867924 55.15895314 -18.33279419 51.9335022 C-19.09250585 49.06038794 -19.87063331 46.19274299 -20.65014648 43.32495117 C-26.58944542 20.99430747 -26.58944542 20.99430747 -22.5625 10.5 C-19.63354656 5.61841093 -14.45741279 2.23792958 -9.15625 0.33984375 C-6.09602526 -0.14247428 -3.09118857 -0.05944593 0 0 Z " fill="#7C72BE" transform="translate(77,120)"/>
<path d="M0 0 C1.53720703 0.51626953 1.53720703 0.51626953 3.10546875 1.04296875 C3.80760498 1.25244141 4.50974121 1.46191406 5.2331543 1.67773438 C12.24728161 4.1746777 15.27200478 8.56856425 19.10546875 14.73046875 C20.23040566 16.46358262 21.35540236 18.19665768 22.48046875 19.9296875 C23.20363281 21.07763794 23.20363281 21.07763794 23.94140625 22.2487793 C24.98170479 23.98864903 24.98170479 23.98864903 26.10546875 25.04296875 C27.19447724 30.70065783 27.94270618 36.47095608 26.10546875 42.04296875 C22.64823025 46.52673715 17.27807177 49.03808375 12.40625 51.72167969 C8.64299077 53.88283832 5.17832038 56.43614887 1.66796875 58.98046875 C0.24331849 59.99117942 -1.18246919 61.00028869 -2.609375 62.0078125 C-3.31690918 62.50909668 -4.02444336 63.01038086 -4.75341797 63.52685547 C-8.29750421 66.03640798 -11.84623735 68.53937093 -15.39453125 71.04296875 C-16.81122047 72.04293679 -18.22788713 73.0429368 -19.64453125 74.04296875 C-79.14453125 116.04296875 -79.14453125 116.04296875 -81.27099609 117.54394531 C-82.68285217 118.5405878 -84.09463643 119.53733204 -85.50634766 120.53417969 C-89.12102394 123.08640321 -92.73706043 125.63666351 -96.35546875 128.18359375 C-97.08878418 128.70026611 -97.82209961 129.21693848 -98.57763672 129.74926758 C-100.02114904 130.76590028 -101.46546545 131.78139235 -102.91064453 132.7956543 C-106.07585306 135.02320234 -109.21878746 137.26768197 -112.30078125 139.609375 C-113.28046875 140.35058594 -114.26015625 141.09179688 -115.26953125 141.85546875 C-116.10226562 142.50128906 -116.935 143.14710938 -117.79296875 143.8125 C-118.48648437 144.21855469 -119.18 144.62460938 -119.89453125 145.04296875 C-120.88453125 144.71296875 -121.87453125 144.38296875 -122.89453125 144.04296875 C-122.48203125 143.07359375 -122.06953125 142.10421875 -121.64453125 141.10546875 C-120.39605591 136.77509273 -121.76884102 134.19661098 -123.75390625 130.3125 C-124.83466371 128.16208876 -125.59184192 126.07808815 -126.33203125 123.79296875 C-128.22921866 118.65220286 -131.53287923 115.92403771 -136.08203125 112.98046875 C-138.89453125 111.04296875 -138.89453125 111.04296875 -139.78125 109 C-140.73501254 106.84141185 -140.73501254 106.84141185 -143.05859375 106.21484375 C-143.87070313 106.075625 -144.6828125 105.93640625 -145.51953125 105.79296875 C-146.33679688 105.6434375 -147.1540625 105.49390625 -147.99609375 105.33984375 C-148.62257812 105.241875 -149.2490625 105.14390625 -149.89453125 105.04296875 C-146.02304524 100.90938987 -141.86716889 97.7425864 -137.20703125 94.54296875 C-135.67899246 93.48016527 -134.1516717 92.41632882 -132.625 91.3515625 C-131.8417334 90.80612793 -131.0584668 90.26069336 -130.25146484 89.69873047 C-126.47494767 87.04570173 -122.74996846 84.32269572 -119.01953125 81.60546875 C-112.10037116 76.57990242 -105.07941994 71.72398328 -98.00488281 66.92041016 C-91.76299284 62.66922536 -85.62856447 58.28410788 -79.51904297 53.84545898 C-67.56939015 45.16465655 -55.44997231 36.72317558 -43.34521484 28.26074219 C-38.63926254 24.96957415 -33.94111787 21.66791979 -29.25512695 18.34838867 C-27.17872847 16.87965799 -25.09738652 15.41814645 -23.015625 13.95703125 C-20.1498155 11.94240484 -17.31565429 9.88989941 -14.4921875 7.81640625 C-13.06398565 6.78750557 -11.63560653 5.75885089 -10.20703125 4.73046875 C-9.55959961 4.24360596 -8.91216797 3.75674316 -8.24511719 3.25512695 C-5.43317235 1.25380963 -3.4948612 0.05188053 0 0 Z " fill="#261C52" transform="translate(376.89453125,93.95703125)"/>
<path d="M0 0 C1.20700319 1.16767111 2.39734709 2.35306575 3.5625 3.5625 C4.305 4.305 5.0475 5.0475 5.8125 5.8125 C10.07359158 12.50850106 15.03011326 24.53874552 13.5625 32.5625 C11.51611373 34.69298434 9.14465689 36.25212241 6.6875 37.875 C5.71103516 38.5565918 5.71103516 38.5565918 4.71484375 39.25195312 C-0.11407425 42.5625 -0.11407425 42.5625 -2.4375 42.5625 C-3.11071284 40.31444998 -3.77584123 38.06397776 -4.4375 35.8125 C-4.80875 34.55953125 -5.18 33.3065625 -5.5625 32.015625 C-6.4375 28.5625 -6.4375 28.5625 -6.4375 24.5625 C-7.91755272 24.6785836 -7.91755272 24.6785836 -9.42750549 24.79701233 C-18.74003755 25.52640713 -28.05316448 26.24773145 -37.36692905 26.96122074 C-42.15485608 27.32826334 -46.94253097 27.69811573 -51.72973633 28.07446289 C-56.35225966 28.43775835 -60.97530401 28.79357699 -65.59879875 29.1442852 C-67.35997921 29.27918487 -69.12095784 29.41674767 -70.88171577 29.55705452 C-73.35368129 29.75357033 -75.8262041 29.94048385 -78.29907227 30.12524414 C-79.02196442 30.18494385 -79.74485657 30.24464355 -80.48965454 30.30615234 C-85.01371741 30.63156616 -89.00180847 30.3444439 -93.4375 29.5625 C-94.125 27.25 -94.125 27.25 -94.4375 24.5625 C-93.42008972 22.95024109 -93.42008972 22.95024109 -91.4375 21.5625 C-88.90918091 21.1093811 -86.57747191 20.83401553 -84.02856445 20.67114258 C-83.27710144 20.61218307 -82.52563843 20.55322357 -81.75140381 20.49247742 C-79.26865626 20.3009429 -76.78495938 20.1289263 -74.30078125 19.95703125 C-72.57861967 19.82799635 -70.85654873 19.69774655 -69.13456726 19.56632996 C-64.60295562 19.22377722 -60.07029968 18.89775733 -55.53723145 18.57513428 C-50.91144881 18.24298473 -46.28684061 17.8952572 -41.66210938 17.54882812 C-32.58832267 16.8714438 -23.51335685 16.2115149 -14.4375 15.5625 C-22.58383778 10.64958031 -35.67468011 13.75224976 -44.72926903 14.48847961 C-46.85402236 14.66121341 -48.97919962 14.82757593 -51.10456848 14.99255371 C-55.61182987 15.34359788 -60.11842194 15.70280761 -64.625 16.0625 C-69.86664436 16.47979053 -75.10853949 16.89359536 -80.35091591 17.30158997 C-82.42597021 17.46447212 -84.50059791 17.63214538 -86.57524109 17.8001709 C-93.54699079 18.3459778 -100.44376592 18.72433996 -107.4375 18.5625 C-107.72488037 19.15998047 -108.01226074 19.75746094 -108.30834961 20.37304688 C-109.90928467 23.47730322 -111.95719284 26.23993037 -114 29.0625 C-114.43820068 29.67182373 -114.87640137 30.28114746 -115.32788086 30.90893555 C-127.10871487 47.23371487 -127.10871487 47.23371487 -129.4375 49.5625 C-134.47015073 50.08733358 -136.76221837 49.09674165 -140.6875 46 C-145.19860343 42.49755207 -149.79826195 39.33328217 -154.63671875 36.30078125 C-156.4375 34.5625 -156.4375 34.5625 -156.83203125 31.98046875 C-156.4375 29.5625 -156.4375 29.5625 -154.4375 27.5625 C-148.75219057 27.68902766 -145.03951382 30.47113464 -140.5625 33.625 C-139.87414062 34.09744141 -139.18578125 34.56988281 -138.4765625 35.05664062 C-136.79039022 36.21588407 -135.11302837 37.38792477 -133.4375 38.5625 C-130.2976679 34.66705411 -127.23225272 30.71968486 -124.1875 26.75 C-123.72859375 26.15251953 -123.2696875 25.55503906 -122.796875 24.93945312 C-121.67663774 23.48081086 -120.55700607 22.02170353 -119.4375 20.5625 C-125.30502381 20.97128082 -131.17253632 21.38022351 -137.04003906 21.78930664 C-139.02994493 21.9280214 -141.01985371 22.06669437 -143.00976562 22.20532227 C-154.15302689 22.98165108 -165.29604873 23.76053542 -176.4375 24.5625 C-179.0188138 17.99188306 -181.4375 11.70829671 -181.4375 4.5625 C-161.2706945 2.99321488 -141.10355113 1.42834303 -120.93599892 -0.13131714 C-111.57126462 -0.85564284 -102.20664514 -1.58139659 -92.84228516 -2.31054688 C-84.67758716 -2.94628251 -76.51268394 -3.57930344 -68.34752595 -4.20910454 C-64.0266492 -4.54247996 -59.70588519 -4.87718727 -55.38536453 -5.21514893 C-51.31289659 -5.53366407 -47.24016234 -5.84852926 -43.167202 -6.16068268 C-41.67807007 -6.27544169 -40.18903728 -6.39149632 -38.70011902 -6.50899506 C-10.29489709 -8.74779753 -10.29489709 -8.74779753 0 0 Z " fill="#7C72BE" transform="translate(276.4375,113.4375)"/>
<path d="M0 0 C2.37282671 3.55924007 3.18111817 7.05546988 4.18310547 11.14892578 C4.3915509 11.98037109 4.59999634 12.81181641 4.8147583 13.66845703 C5.50455664 16.42603227 6.18592337 19.18561757 6.8671875 21.9453125 C7.34751075 23.87340078 7.82832273 25.80136737 8.30960083 27.72921753 C9.5791934 32.8210251 10.84151772 37.91460894 12.10253906 43.00854492 C13.12142802 47.11920153 14.14543789 51.22857356 15.16976738 55.33787727 C16.40403632 60.28990928 17.63592025 65.24253341 18.8671875 70.1953125 C19.09710262 71.11988377 19.32701775 72.04445503 19.56389999 72.99704361 C20.85099925 78.17763815 22.13091106 83.35990943 23.39894867 88.54520416 C23.80605047 90.20787715 24.21494359 91.87011239 24.62546539 93.53194427 C25.21732718 95.9324964 25.80140645 98.33480808 26.38330078 100.73779297 C26.65250745 101.82162608 26.65250745 101.82162608 26.92715263 102.92735481 C27.32962184 104.60812506 27.67169493 106.30318361 28 108 C26.50479928 109.49520072 25.08201196 109.33477994 23 109.5625 C22.278125 109.64628906 21.55625 109.73007812 20.8125 109.81640625 C18.30159849 109.98031232 15.83912518 110.01814809 13.32421875 110.01147461 C12.51428467 110.00981796 11.70435059 110.00816132 10.86987305 110.00645447 C10.25281494 110.00432449 9.63575684 110.00219452 9 110 C-6.81808385 48.92389736 -6.81808385 48.92389736 -12.5 26.25 C-12.68690399 25.50737915 -12.87380798 24.7647583 -13.06637573 23.99963379 C-13.57816369 21.96395125 -14.08667322 19.92748543 -14.59375 17.890625 C-14.86896484 16.78750977 -15.14417969 15.68439453 -15.42773438 14.54785156 C-16 12 -16 12 -16 10 C-14.53125 8.85498047 -14.53125 8.85498047 -12.5 7.6171875 C-11.4171875 6.95009766 -11.4171875 6.95009766 -10.3125 6.26953125 C-9.549375 5.80933594 -8.78625 5.34914062 -8 4.875 C-6.8553125 4.17310547 -6.8553125 4.17310547 -5.6875 3.45703125 C-3.79550727 2.2981857 -1.89965148 1.14623253 0 0 Z " fill="#7C72BE" transform="translate(306,209)"/>
<path d="M0 0 C1.2065625 0.4640625 1.2065625 0.4640625 2.4375 0.9375 C3.530625 1.288125 4.62375 1.63875 5.75 2 C7.0803125 2.4640625 7.0803125 2.4640625 8.4375 2.9375 C7.34674863 6.20975412 6.92261129 6.57923678 4.21875 8.43359375 C3.20470093 9.13826782 3.20470093 9.13826782 2.17016602 9.85717773 C1.43338623 10.35805908 0.69660645 10.85894043 -0.0625 11.375 C-1.62641629 12.45816846 -3.19021521 13.54150639 -4.75390625 14.625 C-5.55586426 15.17671875 -6.35782227 15.7284375 -7.18408203 16.296875 C-10.80798892 18.79663422 -14.40468161 21.33437028 -18 23.875 C-18.69738281 24.36669678 -19.39476562 24.85839355 -20.11328125 25.36499023 C-26.05225891 29.55884935 -31.94442842 33.81590645 -37.83178711 38.08178711 C-43.57954034 42.24138618 -49.36743983 46.34086723 -55.17236328 50.42016602 C-60.29469942 54.0258889 -65.37087945 57.69153712 -70.4375 61.375 C-76.6140839 65.86297799 -82.86587507 70.21903323 -89.1875 74.5 C-95.92790466 79.06508287 -102.48494341 83.81228514 -108.96142578 88.7434082 C-114.66600381 93.06888152 -120.54380423 97.06182469 -126.5625 100.9375 C-127.31917969 100.45667969 -128.07585937 99.97585937 -128.85546875 99.48046875 C-131.81343423 97.79447111 -134.20479475 97.32793084 -137.5625 96.9375 C-126.99713217 88.40084348 -116.01677261 80.48238844 -104.77514648 72.86547852 C-97.00233165 67.58818349 -89.39447461 62.0975902 -81.80078125 56.56689453 C-68.76841609 47.07976483 -55.64495672 37.72864707 -42.45800781 28.45800781 C-32.78474601 21.65488396 -23.16248872 14.78634187 -13.5859375 7.84765625 C-12.57503052 7.11905396 -12.57503052 7.11905396 -11.54370117 6.37573242 C-10.21322248 5.40988523 -8.89049873 4.43327199 -7.57543945 3.4465332 C-2.83623089 -0.06917636 -2.83623089 -0.06917636 0 0 Z " fill="#7A70BB" transform="translate(376.5625,97.0625)"/>
<path d="M0 0 C0.625 2.375 0.625 2.375 1 5 C-1.62648673 7.62648673 -3.05838649 7.40266806 -6.734375 7.7109375 C-7.98565186 7.81954102 -9.23692871 7.92814453 -10.52612305 8.04003906 C-11.93404328 8.15218035 -13.3420038 8.26381664 -14.75 8.375 C-16.21854049 8.49665302 -17.68704537 8.61873646 -19.15551758 8.74121094 C-23.43167172 9.09364903 -27.70898099 9.43009019 -31.9866333 9.76379395 C-35.25421278 10.01992675 -38.52139967 10.2807465 -41.78857422 10.54199219 C-47.86838461 11.02681837 -53.94895599 11.50095531 -60.03015137 11.96807861 C-62.4631826 12.15562528 -64.89604664 12.345354 -67.32873535 12.53729248 C-70.78502661 12.80858591 -74.24194629 13.06967497 -77.69921875 13.328125 C-78.7365062 13.41125946 -79.77379364 13.49439392 -80.84251404 13.58004761 C-86.09999208 13.96185995 -90.81818634 14.00529811 -96 13 C-96.6875 10.6875 -96.6875 10.6875 -97 8 C-95.32832644 5.56191964 -94.24570729 5.05010613 -91.33308411 4.45614624 C-89.71958321 4.33742661 -89.71958321 4.33742661 -88.07348633 4.21630859 C-86.84982864 4.11965912 -85.62617096 4.02300964 -84.36543274 3.9234314 C-83.02099218 3.83137735 -81.67652414 3.73972408 -80.33203125 3.6484375 C-78.93641625 3.5441075 -77.54088369 3.43866951 -76.14543152 3.33218384 C-73.20451164 3.11056402 -70.2631314 2.8979281 -67.32104492 2.69238281 C-63.62578304 2.43416763 -59.93182298 2.16126548 -56.23806953 1.88238144 C-42.56830507 0.85145884 -28.89455263 -0.0886604 -15.19921875 -0.7109375 C-14.22660599 -0.75795807 -13.25399323 -0.80497864 -12.25190735 -0.85342407 C-11.3601329 -0.8893869 -10.46835846 -0.92534973 -9.54956055 -0.96240234 C-8.78548386 -0.99441742 -8.02140717 -1.0264325 -7.23417664 -1.05941772 C-4.730635 -0.99283626 -2.43858805 -0.55289553 0 0 Z " fill="#261C52" transform="translate(279,130)"/>
<path d="M0 0 C6.33534051 1.1005714 11.05417573 6.48334528 14.8125 11.4375 C18.33738007 16.73672849 20.08031165 21.64689134 20 28 C16.12397123 28.86252919 12.24620606 29.71672451 8.36669922 30.56347656 C6.40366834 30.99371672 4.44205433 31.43040515 2.48046875 31.8671875 C1.23652344 32.13789063 -0.00742188 32.40859375 -1.2890625 32.6875 C-2.43068848 32.93886719 -3.57231445 33.19023437 -4.74853516 33.44921875 C-7.95743391 33.99278953 -10.75823476 34.32294792 -14 34 C-16 31 -16 31 -15.78857422 28.61914062 C-14.94868877 25.82957681 -13.84768533 23.61003542 -12.3828125 21.09375 C-11.85816406 20.18496094 -11.33351562 19.27617187 -10.79296875 18.33984375 C-10.24253906 17.40269531 -9.69210938 16.46554688 -9.125 15.5 C-8.58230469 14.56285156 -8.03960937 13.62570313 -7.48046875 12.66015625 C-5.0203739 8.41965046 -2.52765217 4.20059694 0 0 Z " fill="#261C52" transform="translate(215,216)"/>
<path d="M0 0 C0.886875 0.144375 1.77375 0.28875 2.6875 0.4375 C4.00390625 2.45703125 4.00390625 2.45703125 4.6875 5.4375 C3.43483427 8.30224955 1.52594334 10.65844204 -0.375 13.125 C-0.91560059 13.855979 -1.45620117 14.58695801 -2.01318359 15.34008789 C-3.16726951 16.90033919 -4.32832245 18.4554566 -5.49560547 20.00585938 C-7.94975835 23.29037465 -10.32835422 26.62677816 -12.71264648 29.9621582 C-14.36886304 32.27898597 -16.02767359 34.59372311 -17.6953125 36.90234375 C-18.15309082 37.537771 -18.61086914 38.17319824 -19.08251953 38.82788086 C-20.3125 40.4375 -20.3125 40.4375 -22.3125 42.4375 C-27.13192162 42.18810336 -29.86648774 40.67328731 -33.625 37.75 C-37.82791473 34.53025684 -42.07202123 31.64319123 -46.6328125 28.95703125 C-48.87233423 26.93104532 -49.08488352 25.40125631 -49.3125 22.4375 C-48.1875 20.5625 -48.1875 20.5625 -46.3125 19.4375 C-41.19304186 19.70991153 -37.56628446 22.67111119 -33.5 25.5 C-32.80712891 25.97244141 -32.11425781 26.44488281 -31.40039062 26.93164062 C-29.6994352 28.0929826 -28.00527605 29.2642678 -26.3125 30.4375 C-21.80865302 26.2529556 -18.35679942 21.57057041 -14.8125 16.5625 C-13.97912109 15.39654297 -13.97912109 15.39654297 -13.12890625 14.20703125 C-12.58105469 13.44003906 -12.03320312 12.67304688 -11.46875 11.8828125 C-10.66763794 10.76289917 -10.66763794 10.76289917 -9.8503418 9.62036133 C-8.85065044 8.20136777 -7.86913652 6.76933033 -6.90942383 5.32299805 C-3.65635344 0.48291461 -3.65635344 0.48291461 0 0 Z " fill="#251B51" transform="translate(181.3125,169.5625)"/>
<path d="M0 0 C1.67542976 0.28604898 3.34385343 0.61781233 5 1 C5.66796875 2.703125 5.66796875 2.703125 6 5 C1.88500103 14.0879514 -5.5895685 22.2963399 -11.62988281 30.18066406 C-12.82656444 31.76970033 -13.97614964 33.3939849 -15.1171875 35.0234375 C-15.69726562 35.84070313 -16.27734375 36.65796875 -16.875 37.5 C-17.34679687 38.1909375 -17.81859375 38.881875 -18.3046875 39.59375 C-20 41 -20 41 -22.8671875 41.44140625 C-26.62246517 40.91229606 -28.28721932 39.77490332 -31.25 37.4375 C-35.76110343 33.93505207 -40.36076195 30.77078217 -45.19921875 27.73828125 C-47 26 -47 26 -47.39453125 23.41796875 C-47 21 -47 21 -45 19 C-39.31469057 19.12652766 -35.60201382 21.90863464 -31.125 25.0625 C-30.43664062 25.53494141 -29.74828125 26.00738281 -29.0390625 26.49414062 C-27.35289022 27.65338407 -25.67552837 28.82542477 -24 30 C-21.04502093 26.33501451 -18.16796296 22.61790958 -15.3125 18.875 C-3.66275322 3.66275322 -3.66275322 3.66275322 0 0 Z " fill="#261C52" transform="translate(167,122)"/>
<path d="M0 0 C-9.08927382 7.66907479 -15.7936943 10.13968842 -27.5625 10.625 C-28.62919922 10.6765625 -29.69589844 10.728125 -30.79492188 10.78125 C-31.81263672 10.82507813 -32.83035156 10.86890625 -33.87890625 10.9140625 C-34.8129126 10.9548291 -35.74691895 10.9955957 -36.70922852 11.03759766 C-39 11 -39 11 -41 10 C-41.1875 7.125 -41.1875 7.125 -41 4 C-37.59568833 1.73045889 -35.95896155 1.63702799 -31.93359375 1.3671875 C-30.12084961 1.24150391 -30.12084961 1.24150391 -28.27148438 1.11328125 C-26.37366211 0.99533203 -26.37366211 0.99533203 -24.4375 0.875 C-23.19935547 0.78863281 -21.96121094 0.70226562 -20.68554688 0.61328125 C-13.78001103 0.15266848 -6.92063941 -0.12672585 0 0 Z " fill="#251B51" transform="translate(236,181)"/>
<path d="M0 0 C-0.55848826 4.18358477 -3.04446302 7.02629569 -5.5625 10.25 C-5.98724609 10.80429688 -6.41199219 11.35859375 -6.84960938 11.9296875 C-7.89398341 13.29089411 -8.94622464 14.64605833 -10 16 C-10.66 15.01 -11.32 14.02 -12 13 C-10.79868598 8.67526952 -8.33923932 4.8012639 -6 1 C-4 0 -4 0 0 0 Z " fill="#2B2158" transform="translate(218,220)"/>
<path d="M0 0 C0.66 0 1.32 0 2 0 C1.39665691 3.70503641 -0.22474237 5.85968148 -2.5625 8.75 C-3.52349609 9.94882813 -3.52349609 9.94882813 -4.50390625 11.171875 C-4.99761719 11.77515625 -5.49132812 12.3784375 -6 13 C-6 9.36848887 -4.98559794 7.89717554 -3.125 4.8125 C-2.59132812 3.91144531 -2.05765625 3.01039063 -1.5078125 2.08203125 C-0.76144531 1.05142578 -0.76144531 1.05142578 0 0 Z " fill="#6E64AD" transform="translate(216,220)"/>
</svg>
