<?xml version="1.0" encoding="UTF-8" standalone="no"?>
<!-- Created with Inkscape (http://www.inkscape.org/) -->

<svg
   width="456"
   height="456"
   viewBox="0 0 120.65 120.65"
   version="1.1"
   id="svg5"
   xmlns="http://www.w3.org/2000/svg"
   xmlns:svg="http://www.w3.org/2000/svg">
  <defs
     id="defs2">
    <clipPath
       clipPathUnits="userSpaceOnUse"
       id="clipPath2654">
      <path
         style="fill:#999999;fill-opacity:1;stroke:#000000;stroke-width:0.264583px;stroke-linecap:butt;stroke-linejoin:miter;stroke-opacity:1"
         d="m 91.590392,186.50037 -18.408611,16.29615 -0.905343,11.76944 20.219297,4.22493 25.198675,-10.71321 5.13027,-13.73102 6.1865,-6.1865 c 0,0 6.69566,-3.86574 7.21366,-4.16481 0.51801,-0.29907 15.90077,-4.26059 15.90077,-4.26059 v -19.79108 l -11.70388,-3.13604 -4.9345,4.9345 -12.00723,6.93237 -9.9472,5.74302 z"
         id="path2656" />
    </clipPath>
    <clipPath
       clipPathUnits="userSpaceOnUse"
       id="clipPath2947">
      <path
         style="fill:#000000;fill-opacity:1;stroke:#000000;stroke-width:0.264583px;stroke-linecap:butt;stroke-linejoin:miter;stroke-opacity:1"
         d="m 268.24091,169.70594 44.86865,-29.24682 -19.82089,-25.37546 -58.69629,39.53325 z"
         id="path2949" />
    </clipPath>
  </defs>
  <g
     id="layer1">
    <g
       id="g2"
       transform="translate(-1.6639896,2.3767212)">
      <path
         id="rect844"
         style="fill:#261c52;fill-opacity:1;stroke-width:9.99996;stroke-linecap:round;stroke-linejoin:round"
         d="m 68.006591,37.227563 c -0.133407,-0.003 -0.267156,5.77e-4 -0.400884,0.0108 l -27.387821,2.092182 c -2.139568,0.163437 -3.434944,1.984869 -2.904426,4.083909 l 8.024626,31.74994 c 0.530519,2.099039 2.680056,3.657301 4.819621,3.49386 L 77.54553,76.566076 c 2.139571,-0.163437 3.434944,-1.98487 2.904428,-4.083909 l -4.418594,-17.482256 -2.340143,1.525426 3.817895,15.105696 c 0.293165,1.159913 -0.422586,2.166506 -1.60489,2.256823 l -25.495624,1.947598 c -1.182304,0.09032 -2.370242,-0.770866 -2.663406,-1.93078 L 40.254147,44.265429 c -0.293162,-1.159912 0.422588,-2.166505 1.604894,-2.256821 l 25.495621,-1.947599 c 1.182304,-0.09031 2.370234,0.770868 2.663406,1.93078 l 1.213272,4.800643 2.329186,-1.568788 -1.135196,-4.491422 c -0.497362,-1.967846 -2.417693,-3.460448 -4.418739,-3.504659 z" />
      <path
         style="fill:none;stroke:#261c52;stroke-width:2.00002;stroke-linecap:round;stroke-linejoin:round;stroke-miterlimit:4;stroke-dasharray:none;stroke-opacity:1"
         d="m 44.629879,47.816143 3.058414,2.102661 3.695587,-5.097358"
         id="path1951" />
      <path
         style="fill:none;stroke:#261c52;stroke-width:2.00002;stroke-linecap:round;stroke-linejoin:miter;stroke-miterlimit:4;stroke-dasharray:none;stroke-opacity:1"
         d="M 54.052377,46.935214 67.613843,45.944011"
         id="path2127" />
      <path
         style="fill:none;stroke:#261c52;stroke-width:2.00002;stroke-linecap:round;stroke-linejoin:round;stroke-miterlimit:4;stroke-dasharray:none;stroke-opacity:1"
         d="m 46.510528,55.120595 3.058414,2.102659 3.695587,-5.097358"
         id="path1951-4" />
      <path
         style="fill:none;stroke:#261c52;stroke-width:6.69808;stroke-linecap:round;stroke-linejoin:miter;stroke-miterlimit:4;stroke-dasharray:none;stroke-opacity:1"
         d="m 267.03676,161.92398 45.41797,-3.31959"
         id="path2127-4"
         clip-path="url(#clipPath2947)"
         transform="matrix(0.29859249,0,0,0.29859249,-23.802146,5.890381)" />
      <path
         style="fill:#261c52;fill-opacity:1;stroke-width:2.209"
         d="m 38.701709,227.5092 c -4.49976,-1.08915 -8.0989,-4.68465 -9.2981,-9.28868 -0.24966,-0.95852 -0.39467,-2.75084 -0.39467,-4.87821 v -3.36297 l -3.46194,-0.0872 -3.46195,-0.0872 -0.77139,-0.86407 c -0.57738,-0.64676 -0.77139,-1.12814 -0.77139,-1.91406 0,-0.78591 0.19401,-1.26729 0.77139,-1.91405 l 0.77139,-0.86407 3.46195,-0.0872 3.46194,-0.0872 v -8.42461 -8.42461 l -3.46194,-0.0872 -3.46195,-0.0872 -0.77139,-0.86407 c -0.57738,-0.64676 -0.77139,-1.12814 -0.77139,-1.91405 0,-0.78592 0.19401,-1.2673 0.77139,-1.91406 l 0.77139,-0.86407 3.46195,-0.0872 3.46194,-0.0872 v -8.71022 -8.71023 h -3.18814 c -4.2215,0 -5.27853,-0.52983 -5.27853,-2.64583 0,-2.116 1.05703,-2.64583 5.27853,-2.64583 h 3.18814 v -8.71023 -8.71022 l -3.46194,-0.0872 -3.46195,-0.0872 -0.77139,-0.86407 c -0.57738,-0.64675 -0.77139,-1.12813 -0.77139,-1.91405 0,-0.78592 0.19401,-1.2673 0.77139,-1.91405 l 0.77139,-0.86407 3.46195,-0.0872 3.46194,-0.0872 v -8.42462 -8.42461 l -3.46194,-0.0872 -3.46195,-0.0872 -0.77139,-0.86407 c -1.06679,-1.19497 -1.06679,-2.63315 0,-3.82811 l 0.77139,-0.86407 3.46195,-0.0872 3.46194,-0.0872 v -3.36297 c 0,-3.82177 0.37437,-5.65595 1.63854,-8.02777 0.9629,-1.80659 3.38876,-4.165254 5.25824,-5.112591 2.95342,-1.496611 1.1023,-1.438127 45.65304,-1.442372 26.216751,-0.0025 41.555211,0.09154 42.465621,0.260352 3.50103,0.649178 7.30982,3.441863 8.77489,6.433921 1.56738,3.201 1.51422,2.0909 1.50943,31.52355 l -0.004,26.99805 -2.90153,2.04272 -2.90154,2.04273 -0.0706,-29.4271 -0.0706,-29.4271 -0.7335,-1.2478 c -0.40343,-0.68629 -1.12598,-1.54716 -1.60567,-1.91304 -2.02668,-1.54582 -0.0676,-1.46936 -37.646171,-1.46936 h -34.49486 v 60.85416 60.85416 h 34.49486 c 37.857201,0 35.612611,0.0946 37.739491,-1.58996 0.5575,-0.44155 1.32065,-1.41891 1.69589,-2.17192 l 0.68226,-1.3691 V 203.86276 190.7487 l 2.84427,-2.00496 2.84427,-2.00497 0.0684,14.70218 c 0.0418,8.99273 -0.0346,15.26954 -0.19679,16.16316 -0.39168,2.15791 -1.8903,4.99159 -3.48128,6.58256 -1.57632,1.57632 -4.4097,3.08144 -6.54675,3.4777 -0.91329,0.16935 -16.2133,0.25635 -42.597911,0.24222 -34.60442,-0.0185 -41.42034,-0.082 -42.72476,-0.39771 z m 12.53223,-66.25524 V 100.3998 l -5.4901,0.003 c -5.21517,0.002 -5.55743,0.0339 -6.83452,0.62859 -0.73943,0.34431 -1.77358,1.06791 -2.2981,1.60799 -1.41072,1.45257 -1.78145,2.84093 -1.78145,6.67149 v 3.26016 h 1.47286 c 1.18893,0 1.65167,-0.13637 2.40034,-0.70742 1.92309,-1.46681 5.05369,-0.98269 6.46536,0.99982 0.62222,0.87383 0.96013,2.8985 0.67401,4.03849 -0.21957,0.87486 -1.3673,2.20792 -2.32924,2.70535 -1.54895,0.801 -4.24205,0.38844 -5.22927,-0.80108 -0.24071,-0.29004 -0.81032,-0.41432 -1.89895,-0.41432 h -1.55511 v 8.46666 8.46667 h 1.57189 c 0.86453,0 1.65313,-0.13146 1.75243,-0.29213 0.0993,-0.16068 0.67188,-0.51525 1.27239,-0.78794 3.14091,-1.4263 6.49993,0.68191 6.51144,4.08676 0.008,2.2404 -1.4276,3.95361 -3.77587,4.50737 -0.99598,0.23487 -2.64024,-0.24113 -3.58813,-1.03872 -0.62503,-0.52594 -1.06917,-0.6545 -2.26099,-0.6545 h -1.48316 v 8.73125 8.73125 h 1.5465 c 1.20104,0 1.65154,-0.11608 2.01677,-0.51966 0.71809,-0.79348 2.62604,-1.42774 3.74742,-1.24577 1.34086,0.21759 2.84238,1.27875 3.36359,2.37711 0.64172,1.35234 0.57032,3.34462 -0.15922,4.44242 -0.70494,1.06076 -2.59307,2.08965 -3.83479,2.08965 -0.95123,0 -2.66705,-0.76402 -3.22463,-1.43587 -0.24249,-0.29218 -0.80889,-0.41622 -1.90053,-0.41622 h -1.55511 v 8.73125 8.73125 h 1.5465 c 1.20104,0 1.65154,-0.11608 2.01677,-0.51966 0.25866,-0.28581 0.98635,-0.71674 1.6171,-0.95763 2.91737,-1.11415 5.93213,1.04849 5.93213,4.25542 0,3.8407 -4.02768,5.89147 -7.26118,3.69717 -0.73444,-0.49841 -1.3086,-0.65447 -2.40786,-0.65447 h -1.44346 v 8.46667 8.46667 h 1.55511 c 1.08381,0 1.65855,-0.12466 1.89646,-0.41132 0.83133,-1.00169 2.83866,-1.54188 4.29097,-1.15474 1.21138,0.32291 2.65875,1.54614 3.10543,2.62451 0.47913,1.15672 0.22091,3.44434 -0.50364,4.46188 -1.4173,1.99041 -4.54443,2.47748 -6.47113,1.00792 -0.74867,-0.57104 -1.21141,-0.70742 -2.40034,-0.70742 h -1.47286 l 0.002,3.24115 c 0.002,3.95343 0.25543,4.94198 1.65853,6.46416 2.06633,2.2417 2.73043,2.41453 9.38635,2.44278 l 5.3577,0.0227 z m 27.09325,52.44959 c -0.16011,-0.10691 -0.43475,-0.46706 -0.61031,-0.80034 -0.2659,-0.50477 -0.23391,-0.74775 0.19163,-1.4552 0.28095,-0.4671 1.54695,-2.61137 2.81334,-4.76505 l 2.30252,-3.91579 0.83658,0.52969 c 1.6384,1.03736 3.39069,3.05605 4.27129,4.92064 0.74823,1.58432 1.36602,3.57187 1.11024,3.57187 -0.043,0 -2.44265,0.47625 -5.3325,1.05834 -2.88985,0.58208 -5.26268,1.05651 -5.27297,1.05428 -0.0103,-0.002 -0.1497,-0.0915 -0.30982,-0.19844 z m 18.019285,-4.3895 c 0.56191,-1.34484 0.49304,-2.131 -0.26567,-3.03267 -0.3638,-0.43236 -0.66145,-1.0152 -0.66145,-1.2952 0,-0.28 -0.18042,-1.11662 -0.40093,-1.85916 -0.30622,-1.03115 -0.72,-1.63694 -1.75171,-2.56453 -0.742925,-0.66796 -1.623925,-1.28303 -1.957755,-1.36681 -0.34199,-0.0858 -0.75005,-0.49777 -0.93471,-0.94357 -0.47647,-1.1503 -1.36432,-1.64118 -2.65525,-1.46803 -0.59103,0.0793 -1.035,0.11018 -0.9866,0.0687 0.0484,-0.0415 4.01706,-2.85136 8.819245,-6.24413 4.802186,-3.39277 15.852396,-11.20693 24.556036,-17.3648 8.70363,-6.15786 15.90691,-11.19708 16.00729,-11.19826 0.10037,-0.001 1.09759,0.37455 2.21604,0.83494 l 2.03354,0.83709 2.3699,3.34991 2.36991,3.34991 0.16724,2.49587 0.16725,2.49588 -15.39737,10.84791 c -8.46855,5.96636 -19.31144,13.6168 -24.09532,17.00099 -4.78388,3.38419 -8.989896,6.34436 -9.346716,6.57816 l -0.64876,0.42508 z M 67.241229,172.39833 c -0.43656,-0.27243 -2.01414,-1.743 -3.50573,-3.26795 -3.04863,-3.11681 -3.28257,-3.71813 -2.027,-5.21029 0.55559,-0.66027 0.88579,-0.81405 1.74799,-0.81405 0.96038,0 1.25223,0.18347 3.02266,1.90017 l 1.95965,1.90016 2.99861,-2.9585 c 3.38842,-3.34309 3.98235,-3.58652 5.44297,-2.23089 0.74584,0.69222 0.91134,1.14305 0.84236,2.2946 -0.0348,0.58035 -7.19936,7.93781 -8.28556,8.5086 -0.93302,0.4903 -1.24249,0.47313 -2.19595,-0.12185 z m 15.20409,-3.27172 c -0.53301,-0.3592 -0.99946,-0.95461 -1.14477,-1.4613 -0.35724,-1.24561 0.0786,-2.45299 1.14477,-3.1715 l 0.89952,-0.60619 15.584075,0.0722 15.584066,0.0722 0.77194,0.86407 c 0.57801,0.64701 0.77193,1.12784 0.77193,1.91406 0,0.78622 -0.19392,1.26704 -0.77193,1.91405 l -0.77194,0.86407 -15.584066,0.0722 -15.584075,0.0722 z m -14.98331,-18.0687 c -0.41247,-0.1785 -2.02987,-1.63056 -3.59422,-3.22679 -3.12153,-3.18516 -3.3913,-3.80203 -2.28035,-5.21436 1.32399,-1.68318 2.48411,-1.42799 5.05467,1.11189 l 1.78213,1.76085 3.00589,-2.96569 c 2.68184,-2.64597 3.10621,-2.96568 3.93648,-2.96568 0.64247,0 1.13757,0.20697 1.59911,0.66852 1.62561,1.62561 1.21874,2.45993 -3.43426,7.04225 -4.07705,4.01511 -4.67885,4.3908 -6.06945,3.78901 z m 15.10397,-3.00281 c -1.77439,-1.08202 -1.84726,-3.56916 -0.13823,-4.71776 l 0.89903,-0.60421 17.621801,0.001 c 16.90684,0.001 17.65559,0.0216 18.45443,0.50869 1.10568,0.67421 1.57468,2.04529 1.145,3.34726 -0.189,0.57266 -0.64126,1.14705 -1.145,1.45422 -0.79885,0.48711 -1.54626,0.5077 -18.42741,0.5077 -16.748111,0 -17.634001,-0.0239 -18.409621,-0.49689 z m -18.41066,-21.41836 c -3.34662,-3.34662 -3.55489,-3.74922 -2.7474,-5.31074 0.45453,-0.87895 1.70849,-1.4695 2.57266,-1.21158 0.33815,0.10092 1.47854,1.032 2.53421,2.06907 l 1.91938,1.88557 2.97955,-2.97109 c 2.69791,-2.69027 3.07016,-2.97109 3.93828,-2.97109 1.78813,0 2.95829,1.80624 2.16974,3.34917 -0.21134,0.41353 -1.89654,2.27814 -3.74488,4.14358 -5.31605,5.36522 -5.2775,5.36115 -9.62154,1.01711 z m 18.28096,-0.37872 c -1.68446,-1.13516 -1.68446,-3.48546 0,-4.62062 l 0.8905,-0.60011 17.621801,0.001 c 16.90684,10e-4 17.65559,0.0216 18.45443,0.50869 0.50374,0.30717 0.956,0.88156 1.145,1.45422 0.42968,1.30197 -0.0393,2.67305 -1.145,3.34726 -0.79884,0.4871 -1.54759,0.50774 -18.45443,0.50869 l -17.621801,10e-4 -0.8905,-0.60011 z"
         id="path910"
         clip-path="url(#clipPath2654)"
         transform="matrix(0.45269214,0,0,0.45269214,20.944304,-33.221921)" />
      <rect
         style="fill:#7d73bf;fill-opacity:1;stroke:none;stroke-width:5.49989;stroke-linecap:round;stroke-linejoin:round;stroke-miterlimit:4;stroke-dasharray:none;stroke-opacity:1;paint-order:normal"
         id="rect3223"
         width="1.7526144"
         height="25.391781"
         x="97.857849"
         y="11.347592"
         transform="matrix(0.93795398,0.34675977,-0.81463142,0.579979,0,0)" />
      <path
         style="fill:#261c52;fill-opacity:1;stroke:#261c52;stroke-width:0.264582px;stroke-linecap:butt;stroke-linejoin:miter;stroke-opacity:1"
         d="m 61.857108,55.241226 c 0.263405,-0.05456 0.564865,-0.02687 0.948041,0.05331 0.306795,0.104871 0.552451,0.266674 0.695834,0.593865"
         id="path3504" />
      <path
         style="fill:#7d73bf;fill-opacity:1;stroke:#261c52;stroke-width:0.264582px;stroke-linecap:butt;stroke-linejoin:miter;stroke-opacity:1"
         d="m 58.557847,58.931028 0.473077,0.33791 -2.692023,3.457948 z"
         id="path4223" />
    </g>
  </g>
</svg>
