<?xml version="1.0" encoding="UTF-8"?>
<svg version="1.1" xmlns="http://www.w3.org/2000/svg" width="456" height="456">
<path d="M0 0 C6.66147399 6.5197405 8.61295668 15.78702357 9.453125 24.82421875 C9.1484375 27.546875 9.1484375 27.546875 7.72265625 29.26171875 C7.10003906 29.66519531 6.47742188 30.06867188 5.8359375 30.484375 C5.22105469 30.90589844 4.60617187 31.32742187 3.97265625 31.76171875 C2.1484375 32.546875 2.1484375 32.546875 -0.8515625 31.546875 C-1.57177734 29.75268555 -1.57177734 29.75268555 -2.0625 27.43359375 C-2.25585938 26.59763672 -2.44921875 25.76167969 -2.6484375 24.90039062 C-3.03107777 23.13585018 -3.40875865 21.37022634 -3.78125 19.60351562 C-4.66872517 15.79963358 -5.44677393 13.08045993 -7.828125 9.94140625 C-17.33168415 5.55798168 -32.2612533 9.21508382 -42.5078125 10.0078125 C-44.50271749 10.1600776 -46.49763138 10.31222615 -48.49255371 10.46426392 C-52.65152524 10.78239287 -56.81021039 11.10401094 -60.96875 11.42773438 C-66.30233261 11.84234364 -71.63675102 12.24491727 -76.97147369 12.64455223 C-81.08108124 12.95428056 -85.19004787 13.2719325 -89.2988739 13.59184647 C-91.26668193 13.74378517 -93.23471283 13.89286524 -95.20295715 14.03904343 C-97.94396669 14.24347948 -100.68389304 14.45894329 -103.42382812 14.67724609 C-104.23732727 14.73551071 -105.05082642 14.79377533 -105.88897705 14.85380554 C-109.62228406 15.16252733 -111.67526013 15.42934008 -114.8515625 17.546875 C-115.1815625 18.536875 -115.5115625 19.526875 -115.8515625 20.546875 C-114.71509277 20.44197754 -114.71509277 20.44197754 -113.55566406 20.33496094 C-94.97641821 18.63200029 -76.38669686 17.078948 -57.7857666 15.63171387 C-55.46349028 15.45084466 -53.14130473 15.26880611 -50.81921387 15.08557129 C-47.51646703 14.82552273 -44.21338326 14.57027417 -40.91015625 14.31640625 C-39.43533028 14.19943138 -39.43533028 14.19943138 -37.93070984 14.08009338 C-19.82443874 12.71010964 -19.82443874 12.71010964 -12.8515625 17.546875 C-6.95441563 22.65773562 -6.21338712 29.08451893 -4.8515625 36.546875 C-6.13872897 37.55266089 -7.43144908 38.55134298 -8.7265625 39.546875 C-9.44585937 40.10375 -10.16515625 40.660625 -10.90625 41.234375 C-12.8515625 42.546875 -12.8515625 42.546875 -14.8515625 42.546875 C-15.8415625 38.091875 -15.8415625 38.091875 -16.8515625 33.546875 C-18.1715625 33.876875 -19.4915625 34.206875 -20.8515625 34.546875 C-22.36069996 34.71913584 -23.87401824 34.85682977 -25.38891602 34.9675293 C-26.72533897 35.06719246 -26.72533897 35.06719246 -28.08876038 35.16886902 C-29.04302414 35.23560318 -29.9972879 35.30233734 -30.98046875 35.37109375 C-31.96651596 35.44101028 -32.95256317 35.51092682 -33.9684906 35.58296204 C-36.05038376 35.72867365 -38.13242556 35.8722748 -40.21459961 36.01391602 C-43.40627382 36.23383832 -46.59657271 36.46929754 -49.78710938 36.70507812 C-51.80982962 36.84471242 -53.83261438 36.98341603 -55.85546875 37.12109375 C-56.81175674 37.1939006 -57.76804474 37.26670746 -58.75331116 37.34172058 C-60.08500587 37.42719902 -60.08500587 37.42719902 -61.44360352 37.5144043 C-62.22429703 37.56912399 -63.00499054 37.62384369 -63.80934143 37.68022156 C-65.8515625 37.546875 -65.8515625 37.546875 -68.8515625 35.546875 C-69.1015625 32.984375 -69.1015625 32.984375 -68.8515625 30.546875 C-68.5215625 30.216875 -68.1915625 29.886875 -67.8515625 29.546875 C-71.56400785 29.9637992 -71.56400785 29.9637992 -74.42553711 32.20507812 C-74.86389893 32.90568359 -75.30226074 33.60628906 -75.75390625 34.328125 C-76.25212891 35.08738281 -76.75035156 35.84664062 -77.26367188 36.62890625 C-78.27948845 38.2391251 -79.29251845 39.85110528 -80.30273438 41.46484375 C-84.08256315 47.21018348 -84.08256315 47.21018348 -87.8046875 48.83984375 C-91.86603637 48.44932944 -94.47482182 46.7267589 -97.6640625 44.359375 C-98.24865234 43.95912109 -98.83324219 43.55886719 -99.43554688 43.14648438 C-101.79514275 41.45949636 -103.59639632 40.07986691 -104.86328125 37.43359375 C-104.8515625 35.546875 -104.8515625 35.546875 -102.8515625 32.546875 C-106.4815625 32.216875 -110.1115625 31.886875 -113.8515625 31.546875 C-113.5483609 32.61766296 -113.2451593 33.68845093 -112.93276978 34.79168701 C-109.95657506 45.36609185 -107.17802763 55.978046 -104.52549362 66.63788605 C-103.8550526 69.33010052 -103.18080554 72.02133718 -102.50552368 74.71234131 C-100.58986351 82.34735612 -98.67773512 89.98323759 -96.77539062 97.62158203 C-95.6020407 102.33170667 -94.42187758 107.04007955 -93.23732376 111.74739838 C-92.79063074 113.52808497 -92.34649806 115.30941596 -91.90504074 117.09140778 C-91.28996247 119.57334193 -90.66622843 122.0529525 -90.04052734 124.53222656 C-89.77394066 125.62161781 -89.77394066 125.62161781 -89.50196838 126.73301697 C-87.44922858 134.80525388 -87.44922858 134.80525388 -81.8515625 140.546875 C-73.63797606 141.34924799 -65.13805139 140.30076484 -56.94241524 139.62089539 C-54.85892598 139.44823199 -52.77501246 139.28181706 -50.69090271 139.11682129 C-45.51881026 138.70617047 -40.34752684 138.28570303 -35.17626953 137.86468506 C-30.78772155 137.50769254 -26.39886966 137.15497384 -22.00953484 136.80778503 C-19.98162804 136.64571271 -17.95428393 136.47761258 -15.92689514 136.3092041 C-14.66526047 136.20910034 -13.40362579 136.10899658 -12.10375977 136.00585938 C-11.01410416 135.91703491 -9.92444855 135.82821045 -8.80177307 135.73669434 C-3.15786099 135.46548762 2.49801303 135.546875 8.1484375 135.546875 C3.5284375 116.736875 -1.0915625 97.926875 -5.8515625 78.546875 C-2.8815625 76.566875 0.0884375 74.586875 3.1484375 72.546875 C5.1484375 73.546875 5.1484375 73.546875 5.92044067 75.76618958 C6.16470795 76.74673813 6.40897522 77.72728668 6.66064453 78.73754883 C6.940784 79.84572464 7.22092346 80.95390045 7.509552 82.09565735 C7.80546234 83.30287949 8.10137268 84.51010162 8.40625 85.75390625 C8.71416473 86.98598312 9.02207947 88.21806 9.33932495 89.48747253 C9.99041153 92.10021965 10.63827002 94.71351969 11.28076172 97.32836914 C12.10363385 100.676387 12.93781458 104.02145407 13.77594185 107.36568165 C14.57447224 110.55632717 15.36519515 113.74890047 16.15625 116.94140625 C16.4562088 118.14255569 16.7561676 119.34370514 17.06521606 120.58125305 C17.33905121 121.69888535 17.61288635 122.81651764 17.89501953 123.96801758 C18.25903366 125.44242058 18.25903366 125.44242058 18.63040161 126.9466095 C19.1484375 129.546875 19.1484375 129.546875 19.1484375 133.546875 C21.49991993 132.28877334 21.49991993 132.28877334 23.1484375 129.546875 C23.03956837 127.1876898 23.03956837 127.1876898 22.4440918 124.57983398 C22.24351166 123.595383 22.04293152 122.61093201 21.83627319 121.59664917 C20.75733631 116.81278308 19.55478791 112.07062872 18.29296875 107.33203125 C17.74773521 105.24422199 17.20282241 103.15632895 16.65820312 101.06835938 C15.80604959 97.81950858 14.95090019 94.57151912 14.09008789 91.32495117 C13.25349457 88.16277539 12.42868053 84.99771275 11.60546875 81.83203125 C11.34409622 80.85911636 11.08272369 79.88620148 10.81343079 78.88380432 C10.46262703 77.52605141 10.46262703 77.52605141 10.10473633 76.14086914 C9.89536942 75.34797989 9.6860025 74.55509064 9.47029114 73.73817444 C9.10193825 71.23029077 9.10843106 69.86678824 10.1484375 67.546875 C12.21484375 66.0625 12.21484375 66.0625 14.7109375 64.796875 C15.53722656 64.36890625 16.36351562 63.9409375 17.21484375 63.5 C17.85292969 63.18546875 18.49101562 62.8709375 19.1484375 62.546875 C21.37647481 71.01105683 23.5938891 79.47793084 25.79801178 87.94837189 C26.82194346 91.88199233 27.84942788 95.81461056 28.88525391 99.74511719 C29.88585237 103.54249456 30.87682705 107.3422673 31.86134338 111.1438446 C32.23749796 112.58949529 32.61703756 114.03426981 33.00010681 115.47810364 C37.70146174 133.21896591 37.70146174 133.21896591 34.8359375 139.359375 C34.2790625 140.08125 33.7221875 140.803125 33.1484375 141.546875 C32.7359375 142.124375 32.3234375 142.701875 31.8984375 143.296875 C29.19747291 145.22613542 26.38968295 145.24109713 23.1484375 145.546875 C23.23544922 146.65095703 23.23544922 146.65095703 23.32421875 147.77734375 C23.69526665 155.80257977 23.69526665 155.80257977 20.8984375 159.609375 C17.1735387 162.23373552 14.36921018 163.74173693 9.804245 164.09109497 C8.94220459 164.16115753 8.08016418 164.23122009 7.19200134 164.30340576 C6.25425369 164.37102112 5.31650604 164.43863647 4.3503418 164.50830078 C3.35638397 164.5866214 2.36242615 164.66494202 1.33834839 164.74563599 C-1.94964374 165.00260961 -5.23841315 165.24754231 -8.52734375 165.4921875 C-10.81419336 165.66803547 -13.10099195 165.84454823 -15.38774109 166.021698 C-20.18316926 166.39147789 -24.97897122 166.75576446 -29.77514648 167.11572266 C-35.91579241 167.57665707 -42.05565441 168.04716061 -48.19529438 168.52128792 C-54.05571433 168.97337705 -59.91652031 169.42036543 -65.77734375 169.8671875 C-66.89313623 169.95274021 -68.00892872 170.03829292 -69.1585331 170.12643814 C-72.32724424 170.36852696 -75.49620905 170.60695458 -78.6652832 170.84423828 C-79.59695816 170.9159021 -80.52863312 170.98756592 -81.48854065 171.06140137 C-97.13552641 172.21938475 -97.13552641 172.21938475 -103.8515625 168.546875 C-109.07182101 163.97653299 -111.08947991 159.03183596 -112.6484375 152.421875 C-112.87986954 151.51438507 -113.11130157 150.60689514 -113.3497467 149.67190552 C-114.11945084 146.63467573 -114.86065372 143.59124657 -115.6015625 140.546875 C-116.14236744 138.38221005 -116.68498001 136.21799603 -117.22924805 134.05419922 C-118.11678642 130.52005105 -119.00147657 126.98529929 -119.8782196 123.44845581 C-122.21099518 114.04136981 -124.62711813 104.65777843 -127.07148361 95.2791214 C-128.32414221 90.46605686 -129.56759796 85.65060711 -130.81089592 80.83511734 C-131.83477509 76.87107045 -132.8627733 72.90819695 -133.9005127 68.94775391 C-134.8881887 65.17587486 -135.86126751 61.40049831 -136.82427788 57.6222496 C-137.18232316 56.22752293 -137.54531446 54.83405439 -137.91380501 53.44205093 C-143.29687918 33.07523922 -143.29687918 33.07523922 -139.1640625 25.421875 C-135.32842978 22.31190252 -132.79668808 21.546875 -127.8515625 21.546875 C-128.1815625 20.886875 -128.5115625 20.226875 -128.8515625 19.546875 C-129.25294125 15.37253605 -129.11350553 13.05135787 -127.1640625 9.296875 C-123.68943265 5.16488274 -120.73174578 3.48876782 -115.3938446 2.88240051 C-113.58222091 2.73225911 -111.76937693 2.596422 -109.95581055 2.47192383 C-108.96331299 2.39345718 -107.97081543 2.31499054 -106.94824219 2.23414612 C-103.67074793 1.97823645 -100.39219422 1.74088573 -97.11328125 1.50390625 C-94.83022706 1.32987771 -92.54725351 1.15478811 -90.26435852 0.97868347 C-85.47928147 0.61215759 -80.69368051 0.2540086 -75.9074707 -0.09741211 C-69.7835009 -0.54708559 -63.66067906 -1.01050732 -57.53814983 -1.47935009 C-51.68852742 -1.92686834 -45.83844582 -2.36822761 -39.98828125 -2.80859375 C-38.87666815 -2.89263144 -37.76505505 -2.97666912 -36.6197567 -3.0632534 C-33.45857378 -3.30095602 -30.29710538 -3.53437623 -27.13549805 -3.76635742 C-25.74573509 -3.87149658 -25.74573509 -3.87149658 -24.32789612 -3.97875977 C-6.69528035 -5.25452382 -6.69528035 -5.25452382 0 0 Z M-34.8515625 25.546875 C-34.8515625 25.876875 -34.8515625 26.206875 -34.8515625 26.546875 C-32.8715625 26.546875 -30.8915625 26.546875 -28.8515625 26.546875 C-28.8515625 26.216875 -28.8515625 25.886875 -28.8515625 25.546875 C-30.8315625 25.546875 -32.8115625 25.546875 -34.8515625 25.546875 Z M-47.8515625 26.546875 C-47.8515625 26.876875 -47.8515625 27.206875 -47.8515625 27.546875 C-46.2015625 27.546875 -44.5515625 27.546875 -42.8515625 27.546875 C-42.8515625 27.216875 -42.8515625 26.886875 -42.8515625 26.546875 C-44.5015625 26.546875 -46.1515625 26.546875 -47.8515625 26.546875 Z M-60.8515625 27.546875 C-60.8515625 27.876875 -60.8515625 28.206875 -60.8515625 28.546875 C-59.2015625 28.546875 -57.5515625 28.546875 -55.8515625 28.546875 C-55.8515625 28.216875 -55.8515625 27.886875 -55.8515625 27.546875 C-57.5015625 27.546875 -59.1515625 27.546875 -60.8515625 27.546875 Z M-94.0390625 30.046875 C-95.94751953 30.18609375 -95.94751953 30.18609375 -97.89453125 30.328125 C-99.35826172 30.43640625 -99.35826172 30.43640625 -100.8515625 30.546875 C-99.53328102 33.18343796 -98.02797578 33.79352834 -95.4765625 35.234375 C-94.68507813 35.69199219 -93.89359375 36.14960938 -93.078125 36.62109375 C-90.74617613 37.87631108 -90.74617613 37.87631108 -87.8515625 36.546875 C-86.62710966 34.91739436 -86.62710966 34.91739436 -85.6640625 32.984375 C-85.0659375 31.85 -84.4678125 30.715625 -83.8515625 29.546875 C-87.26931256 29.546875 -90.63037423 29.79669604 -94.0390625 30.046875 Z M-126.8515625 33.546875 C-129.83253652 38.01833602 -128.74608403 41.38591165 -127.8515625 46.546875 C-126.57818415 52.35211512 -125.10910962 58.10112602 -123.625 63.85546875 C-123.19417949 65.54753762 -122.76398601 67.23976625 -122.3343811 68.93214417 C-121.20257091 73.38346472 -120.06203539 77.83250434 -118.91967773 82.28112793 C-117.78341461 86.71271423 -116.65579851 91.14649841 -115.52734375 95.58007812 C-113.57812006 103.23426295 -111.61637815 110.88516206 -109.64825058 118.53450584 C-108.50165102 122.99643784 -107.36673419 127.46102627 -106.24751091 131.92990398 C-105.76292567 133.8630191 -105.27454727 135.79518213 -104.78604126 137.72731018 C-104.2096717 140.00739877 -103.63918846 142.2889876 -103.07601929 144.57237244 C-102.69735214 146.06034081 -102.69735214 146.06034081 -102.31103516 147.57836914 C-102.09951813 148.42516739 -101.8880011 149.27196564 -101.67007446 150.14442444 C-100.44438333 153.74200453 -99.14415325 156.66678725 -95.94374084 158.84585571 C-86.21983928 162.10401129 -72.54915711 158.87767522 -62.44921875 158.0859375 C-60.47913097 157.93365658 -58.50903293 157.78150833 -56.53892517 157.62948608 C-52.43122493 157.31136106 -48.3238139 156.98975771 -44.21655273 156.66601562 C-38.9525619 156.25165287 -33.68774731 155.84897351 -28.42263126 155.44919777 C-24.36360996 155.13921845 -20.30520934 154.82164365 -16.24694633 154.50190353 C-14.3050762 154.35010992 -12.36299232 154.20102533 -10.42070198 154.05470657 C-7.71345002 153.8499118 -5.00723748 153.63455414 -2.30102539 153.41650391 C-1.50047226 153.35823929 -0.69991913 153.29997467 0.12489319 153.23994446 C5.48212825 152.89620105 5.48212825 152.89620105 10.1484375 150.546875 C10.95372639 148.49686629 10.95372639 148.49686629 11.1484375 146.546875 C-1.27429503 147.01627918 -13.66475455 147.78321227 -26.05859375 148.73828125 C-26.76966152 148.79301983 -27.48072929 148.84775841 -28.21334457 148.90415573 C-33.36391293 149.30170746 -38.5140269 149.70498875 -43.6640625 150.109375 C-48.8645541 150.51763004 -54.06519237 150.92380305 -59.26624107 151.32490349 C-61.31806494 151.48416518 -63.36957624 151.64708084 -65.4210968 151.81019592 C-83.65960766 153.22032999 -83.65960766 153.22032999 -88.1015625 150.859375 C-88.72546875 150.54613281 -89.349375 150.23289062 -89.9921875 149.91015625 C-100.85032641 141.9490418 -102.37381208 120.89867833 -105.45703125 108.56640625 C-105.98663972 106.45976236 -106.51661941 104.35321177 -107.04695129 102.24674988 C-108.43195417 96.74268587 -109.81329276 91.23771013 -111.19342041 85.73242188 C-113.4119555 76.88326106 -115.63387448 68.03495578 -117.86007118 59.18771935 C-118.63598496 56.10041134 -119.40893475 53.0123714 -120.1816864 49.92427063 C-120.65379799 48.04559299 -121.12602562 46.16694451 -121.59838867 44.28833008 C-121.92019608 42.99727104 -121.92019608 42.99727104 -122.24850464 41.68013 C-123.25341111 37.509546 -123.25341111 37.509546 -124.8515625 33.546875 C-125.5115625 33.546875 -126.1715625 33.546875 -126.8515625 33.546875 Z " fill="#251B51" transform="translate(268.8515625,144.453125)"/>
<path d="M0 0 C2.54151625 8.10108303 2.54151625 8.10108303 2 12 C1.49755768 12.45672592 0.99511536 12.91345184 0.47744751 13.38401794 C-1.16887717 14.86951556 -1.16887717 14.86951556 -1.22280884 16.8719635 C-0.17260258 25.52366549 2.05439293 33.88643406 4.2265625 42.30859375 C4.65738301 44.00066262 5.08757649 45.69289125 5.5171814 47.38526917 C6.64899159 51.83658972 7.78952711 56.28562934 8.93188477 60.73425293 C10.06814791 65.16583927 11.19574598 69.59962796 12.32421875 74.03320312 C14.27326716 81.68552654 16.2324781 89.3351917 18.19878006 96.98309898 C19.34859398 101.45679749 20.49290939 105.93182611 21.62983894 110.40881634 C22.42446285 113.53509107 23.22446753 116.65998987 24.0234375 119.78515625 C24.30063629 120.88347275 24.57783508 121.98178925 24.86343384 123.11338806 C25.11910126 124.10858963 25.37476868 125.1037912 25.63818359 126.12915039 C25.85493744 126.98118546 26.07169128 127.83322052 26.29501343 128.71107483 C27.6200427 133.12766351 27.6200427 133.12766351 30.84532166 136.23634338 C40.47464018 139.64914642 54.3541402 136.30761103 64.40234375 135.50390625 C66.37241984 135.34908289 68.34251811 135.1945415 70.31263733 135.04026794 C74.42031664 134.71765403 78.52774439 134.39204965 82.63500977 134.06420898 C87.8992401 133.64420691 93.16398686 133.23113429 98.42893124 132.82019138 C102.48769676 132.50273924 106.54619453 132.18196741 110.60461617 131.86015129 C112.54662132 131.70650062 114.48870274 131.55381084 116.43086052 131.40210152 C119.13769645 131.1900976 121.84414609 130.97370376 124.55053711 130.75610352 C125.35109024 130.69424362 126.15164337 130.63238373 126.97645569 130.56864929 C130.41873062 130.28768845 133.6675708 129.89930228 137 129 C137.33 127.35 137.66 125.7 138 124 C141.96 124 145.92 124 150 124 C150.61243427 134.16640891 150.61243427 134.16640891 147.75 138.0625 C144.0251012 140.68686052 141.22077268 142.19486193 136.6558075 142.54421997 C135.79376709 142.61428253 134.93172668 142.68434509 134.04356384 142.75653076 C133.10581619 142.82414612 132.16806854 142.89176147 131.2019043 142.96142578 C130.20794647 143.0397464 129.21398865 143.11806702 128.18991089 143.19876099 C124.90191876 143.45573461 121.61314935 143.70066731 118.32421875 143.9453125 C116.03736914 144.12116047 113.75057055 144.29767323 111.46382141 144.474823 C106.66839324 144.84460289 101.87259128 145.20888946 97.07641602 145.56884766 C90.93577009 146.02978207 84.79590809 146.50028561 78.65626812 146.97441292 C72.79584817 147.42650205 66.93504219 147.87349043 61.07421875 148.3203125 C59.95842627 148.40586521 58.84263378 148.49141792 57.6930294 148.57956314 C54.52431826 148.82165196 51.35535345 149.06007958 48.1862793 149.29736328 C47.25460434 149.3690271 46.32292938 149.44069092 45.36302185 149.51452637 C29.71603609 150.67250975 29.71603609 150.67250975 23 147 C17.77974149 142.42965799 15.76208259 137.48496096 14.203125 130.875 C13.97169296 129.96751007 13.74026093 129.06002014 13.5018158 128.12503052 C12.73211166 125.08780073 11.99090878 122.04437157 11.25 119 C10.70919506 116.83533505 10.16658249 114.67112103 9.62231445 112.50732422 C8.73477608 108.97317605 7.85008593 105.43842429 6.9733429 101.90158081 C4.64056732 92.49449481 2.22444437 83.11090343 -0.21992111 73.7322464 C-1.47257971 68.91918186 -2.71603546 64.10373211 -3.95933342 59.28824234 C-4.98321259 55.32419545 -6.0112108 51.36132195 -7.0489502 47.40087891 C-8.0366262 43.62899986 -9.00970501 39.85362331 -9.97271538 36.0753746 C-10.33076066 34.68064793 -10.69375196 33.28717939 -11.06224251 31.89517593 C-16.44531668 11.52836422 -16.44531668 11.52836422 -12.3125 3.875 C-8.31856916 0.6366777 -5.1149782 -0.29228447 0 0 Z " fill="#7C72BE" transform="translate(142,166)"/>
<path d="M0 0 C2.88267178 1.65398627 4.63707601 3.46142962 6.57470703 6.15454102 C7.23599609 7.02079102 7.89728516 7.88704102 8.57861328 8.77954102 C10.65352664 13.66435067 11.31869291 17.95426147 10.01220703 23.15454102 C7.51630918 26.25167359 4.46722677 28.07080829 1.07470703 30.09204102 C-0.77869335 31.28782554 -2.63154978 32.48445356 -4.48388672 33.68188477 C-5.41571777 34.26566895 -6.34754883 34.84945312 -7.30761719 35.45092773 C-11.13415845 37.88321093 -14.80740773 40.50861371 -18.48779297 43.15454102 C-19.87220933 44.13512147 -21.25764116 45.11426971 -22.64404297 46.09204102 C-23.34529297 46.58704102 -24.04654297 47.08204102 -24.76904297 47.59204102 C-29.67890398 51.04968962 -34.60301315 54.48703135 -39.52441406 57.92822266 C-45.76811013 62.29590417 -51.99745659 66.6835076 -58.2199707 71.08129883 C-63.46511376 74.7879257 -68.7206633 78.47919746 -73.98779297 82.15454102 C-74.98779297 79.15454102 -74.98779297 79.15454102 -75.36279297 76.96704102 C-76.86722877 70.19707991 -78.61376172 65.65418015 -84.20263672 61.27563477 C-86.42214407 59.88176472 -88.37511073 59.31288539 -90.98779297 59.15454102 C-90.98779297 58.49454102 -90.98779297 57.83454102 -90.98779297 57.15454102 C-88.70872852 55.44294214 -86.42422078 53.85055089 -84.05029297 52.27954102 C-82.5704318 51.2818725 -81.09128777 50.28313955 -79.61279297 49.28344727 C-78.46230469 48.50831787 -78.46230469 48.50831787 -77.28857422 47.7175293 C-73.6763186 45.26361795 -70.11245802 42.74288705 -66.55029297 40.21704102 C-65.49467163 39.46994873 -65.49467163 39.46994873 -64.41772461 38.70776367 C-62.98788346 37.69572585 -61.55827726 36.68335601 -60.12890625 35.6706543 C-56.58482001 33.16110178 -53.03608686 30.65813884 -49.48779297 28.15454102 C-48.07110375 27.15457297 -46.65443708 26.15457296 -45.23779297 25.15454102 C-42.40445964 23.15454102 -39.5711263 21.15454102 -36.73779297 19.15454102 C-36.03589844 18.65833252 -35.33400391 18.16212402 -34.61083984 17.65087891 C-33.20354767 16.6590098 -31.79341243 15.67116142 -30.38037109 14.6875 C-26.66102922 12.09023988 -23.02683402 9.42663002 -19.45654297 6.62719727 C-18.70824219 6.05678711 -17.95994141 5.48637695 -17.18896484 4.89868164 C-15.75935652 3.8064964 -14.34767615 2.69028463 -12.95849609 1.54711914 C-8.2438106 -1.9994084 -5.46603187 -2.3431722 0 0 Z " fill="#261C52" transform="translate(317.98779296875,152.845458984375)"/>
<path d="M0 0 C3.56860616 4.64159923 4.16229438 10.9447066 5.1875 16.5625 C3.90033353 17.56828589 2.60761342 18.56696798 1.3125 19.5625 C0.59320313 20.119375 -0.12609375 20.67625 -0.8671875 21.25 C-2.8125 22.5625 -2.8125 22.5625 -4.8125 22.5625 C-5.8025 18.1075 -5.8025 18.1075 -6.8125 13.5625 C-8.1325 13.8925 -9.4525 14.2225 -10.8125 14.5625 C-12.32163746 14.73476084 -13.83495574 14.87245477 -15.34985352 14.9831543 C-16.68627647 15.08281746 -16.68627647 15.08281746 -18.04969788 15.18449402 C-19.00396164 15.25122818 -19.9582254 15.31796234 -20.94140625 15.38671875 C-21.92745346 15.45663528 -22.91350067 15.52655182 -23.9294281 15.59858704 C-26.01132126 15.74429865 -28.09336306 15.8878998 -30.17553711 16.02954102 C-33.36721132 16.24946332 -36.55751021 16.48492254 -39.74804688 16.72070312 C-41.77076712 16.86033742 -43.79355188 16.99904103 -45.81640625 17.13671875 C-47.25083824 17.24592903 -47.25083824 17.24592903 -48.71424866 17.35734558 C-49.60204514 17.41433121 -50.48984161 17.47131683 -51.40454102 17.5300293 C-52.18523453 17.58474899 -52.96592804 17.63946869 -53.77027893 17.69584656 C-55.8125 17.5625 -55.8125 17.5625 -58.8125 15.5625 C-59.0625 13 -59.0625 13 -58.8125 10.5625 C-58.3175 10.0675 -58.3175 10.0675 -57.8125 9.5625 C-61.52494535 9.9794242 -61.52494535 9.9794242 -64.38647461 12.22070312 C-64.82483643 12.92130859 -65.26319824 13.62191406 -65.71484375 14.34375 C-66.46217773 15.48263672 -66.46217773 15.48263672 -67.22460938 16.64453125 C-68.24042595 18.2547501 -69.25345595 19.86673028 -70.26367188 21.48046875 C-74.04350065 27.22580848 -74.04350065 27.22580848 -77.765625 28.85546875 C-81.82697387 28.46495444 -84.43575932 26.7423839 -87.625 24.375 C-88.20958984 23.97474609 -88.79417969 23.57449219 -89.39648438 23.16210938 C-91.75608025 21.47512136 -93.55733382 20.09549191 -94.82421875 17.44921875 C-94.8125 15.5625 -94.8125 15.5625 -92.8125 12.5625 C-96.7725 12.2325 -100.7325 11.9025 -104.8125 11.5625 C-105.4725 7.9325 -106.1325 4.3025 -106.8125 0.5625 C-61.53880248 -3.25773271 -61.53880248 -3.25773271 -39.37063599 -4.99179077 C-37.72118814 -5.12114143 -36.07183255 -5.25167464 -34.4225769 -5.38345337 C-8.58805236 -7.44297872 -8.58805236 -7.44297872 0 0 Z M-24.8125 5.5625 C-24.8125 5.8925 -24.8125 6.2225 -24.8125 6.5625 C-22.8325 6.5625 -20.8525 6.5625 -18.8125 6.5625 C-18.8125 6.2325 -18.8125 5.9025 -18.8125 5.5625 C-20.7925 5.5625 -22.7725 5.5625 -24.8125 5.5625 Z M-37.8125 6.5625 C-37.8125 6.8925 -37.8125 7.2225 -37.8125 7.5625 C-36.1625 7.5625 -34.5125 7.5625 -32.8125 7.5625 C-32.8125 7.2325 -32.8125 6.9025 -32.8125 6.5625 C-34.4625 6.5625 -36.1125 6.5625 -37.8125 6.5625 Z M-50.8125 7.5625 C-50.8125 7.8925 -50.8125 8.2225 -50.8125 8.5625 C-49.1625 8.5625 -47.5125 8.5625 -45.8125 8.5625 C-45.8125 8.2325 -45.8125 7.9025 -45.8125 7.5625 C-47.4625 7.5625 -49.1125 7.5625 -50.8125 7.5625 Z M-84 10.0625 C-85.90845703 10.20171875 -85.90845703 10.20171875 -87.85546875 10.34375 C-89.31919922 10.45203125 -89.31919922 10.45203125 -90.8125 10.5625 C-89.49421852 13.19906296 -87.98891328 13.80915334 -85.4375 15.25 C-84.64601562 15.70761719 -83.85453125 16.16523438 -83.0390625 16.63671875 C-80.70711363 17.89193608 -80.70711363 17.89193608 -77.8125 16.5625 C-76.58804716 14.93301936 -76.58804716 14.93301936 -75.625 13 C-75.026875 11.865625 -74.42875 10.73125 -73.8125 9.5625 C-77.23025006 9.5625 -80.59131173 9.81232104 -84 10.0625 Z " fill="#7C72BE" transform="translate(258.8125,164.4375)"/>
<path d="M0 0 C0.66 0.33 1.32 0.66 2 1 C2.80996704 3.43605042 2.80996704 3.43605042 3.60400391 6.71313477 C3.90416412 7.9343251 4.20432434 9.15551544 4.51358032 10.41371155 C4.8347503 11.75623438 5.15574008 13.09880032 5.4765625 14.44140625 C5.80928743 15.8077877 6.14274183 17.17399171 6.47689819 18.5400238 C7.35549551 22.14025495 8.22413238 25.74281874 9.09075928 29.34594727 C9.9764107 33.02049507 10.87140228 36.69276491 11.765625 40.36523438 C13.51959769 47.57461853 15.26306049 54.78649089 17 62 C14.59454362 63.20272819 13.05003047 63.10071472 10.375 63.0625 C9.14910156 63.04896484 9.14910156 63.04896484 7.8984375 63.03515625 C7.27195312 63.02355469 6.64546875 63.01195312 6 63 C3.43288745 56.60719055 1.68638961 50.19360821 0.08203125 43.5 C-0.18007645 42.42371338 -0.44218414 41.34742676 -0.7122345 40.23852539 C-1.54197109 36.82679205 -2.36483527 33.41344468 -3.1875 30 C-3.75149875 27.67567095 -4.31594721 25.35145097 -4.88085938 23.02734375 C-6.2591129 17.35281132 -7.63120865 11.67682195 -9 6 C-6.03 4.02 -3.06 2.04 0 0 Z " fill="#7C72BE" transform="translate(272,217)"/>
<path d="M0 0 C1.95263672 0.78686523 1.95263672 0.78686523 4.95263672 2.78686523 C-3.84605838 9.16953157 -12.65524226 15.53477306 -21.54736328 21.78686523 C-27.41225992 25.9107591 -33.24147364 30.08031499 -39.04736328 34.28686523 C-45.07032287 38.64673953 -51.10638138 42.98699665 -57.17236328 47.28686523 C-57.84654297 47.76704102 -58.52072266 48.2472168 -59.21533203 48.74194336 C-63.72477456 51.92903445 -68.33593912 54.90722779 -73.04736328 57.78686523 C-74.36736328 56.46686523 -75.68736328 55.14686523 -77.04736328 53.78686523 C-68.56065529 47.3202646 -60.01548067 40.99907854 -51.18969727 35.00219727 C-45.33113583 31.01124321 -39.586275 26.87438542 -33.85107422 22.70874023 C-27.89953236 18.38969474 -21.90454454 14.13598783 -15.87963867 9.91992188 C-15.23115967 9.46480225 -14.58268066 9.00968262 -13.91455078 8.54077148 C-12.96467285 7.87779053 -12.96467285 7.87779053 -11.99560547 7.20141602 C-10.60939169 6.19493448 -9.25313289 5.14663316 -7.91943359 4.0715332 C-7.22172852 3.51224121 -6.52402344 2.95294922 -5.80517578 2.37670898 C-4.86762451 1.59928345 -4.86762451 1.59928345 -3.91113281 0.80615234 C-2.04736328 -0.21313477 -2.04736328 -0.21313477 0 0 Z " fill="#786EB9" transform="translate(313.04736328125,153.213134765625)"/>
<path d="M0 0 C0.77279297 -0.00319244 1.54558594 -0.00638489 2.34179688 -0.00967407 C7.68465548 0.02059298 7.68465548 0.02059298 8.8125 1.1484375 C9 3.5859375 9 3.5859375 8.8125 6.1484375 C6.36890012 8.59203738 5.46525165 8.48711678 2.09082031 8.75854492 C0.61853973 8.88328438 0.61853973 8.88328438 -0.88348389 9.01054382 C-1.94802795 9.09085342 -3.01257202 9.17116302 -4.109375 9.25390625 C-5.20211731 9.34223221 -6.29485962 9.43055817 -7.42071533 9.52156067 C-9.73715844 9.70655023 -12.0539696 9.88697831 -14.37109375 10.06323242 C-17.9099537 10.33383117 -21.44707907 10.6218558 -24.984375 10.91210938 C-27.23429243 11.08959155 -29.48429035 11.26605686 -31.734375 11.44140625 C-33.31904572 11.57097969 -33.31904572 11.57097969 -34.93572998 11.70317078 C-39.84367012 12.0670377 -44.36452427 12.39532625 -49.1875 11.1484375 C-50.1875 10.1484375 -50.1875 10.1484375 -50.375 7.7109375 C-50.1875 5.1484375 -50.1875 5.1484375 -48.1875 3.1484375 C-45.54073272 2.76069212 -42.97491453 2.48947774 -40.3125 2.296875 C-39.51457031 2.23311676 -38.71664062 2.16935852 -37.89453125 2.10366821 C-36.19337596 1.96995936 -34.49185701 1.84081259 -32.79003906 1.71582031 C-30.25215987 1.52821724 -27.71606474 1.32399521 -25.1796875 1.1171875 C-16.78447344 0.45834909 -8.42271212 0.02251553 0 0 Z " fill="#271C53" transform="translate(250.1875,169.8515625)"/>
<path d="M0 0 C0.78375 0.04125 1.5675 0.0825 2.375 0.125 C3.51953125 2.37109375 3.51953125 2.37109375 4.375 5.125 C3.57421875 7.16015625 3.57421875 7.16015625 2.0625 9.1875 C1.22138672 10.33605469 1.22138672 10.33605469 0.36328125 11.5078125 C-0.29285156 12.37148437 -0.94898438 13.23515625 -1.625 14.125 C-2.37394531 15.17429688 -3.12289062 16.22359375 -3.89453125 17.3046875 C-11.01860054 27.18113764 -11.01860054 27.18113764 -14.625 28.125 C-17.92486878 27.01504414 -20.72796047 25.0363456 -23.625 23.125 C-24.25792969 22.71507812 -24.89085937 22.30515625 -25.54296875 21.8828125 C-27.1875 20.6875 -27.1875 20.6875 -29.625 18.125 C-30 14.8125 -30 14.8125 -29.625 12.125 C-27.0625 11.3125 -27.0625 11.3125 -23.625 11.125 C-21.60613355 12.24519919 -19.91867321 13.52640074 -18.140625 14.99609375 C-16.67264905 16.324117 -16.67264905 16.324117 -14.625 16.125 C-12.87796666 13.86448051 -11.23709579 11.60365985 -9.625 9.25 C-3.32380546 0.15827645 -3.32380546 0.15827645 0 0 Z " fill="#251B51" transform="translate(201.625,192.875)"/>
<path d="M0 0 C0.721875 0.12375 1.44375 0.2475 2.1875 0.375 C2.9375 2.4375 2.9375 2.4375 3.1875 5.375 C0.57381362 10.38963084 -2.48196449 15.09552275 -5.6875 19.75 C-6.09613281 20.37777344 -6.50476563 21.00554687 -6.92578125 21.65234375 C-8.93182745 24.5457998 -10.4183037 26.21487438 -13.70703125 27.55078125 C-17.84837675 27.31636547 -20.39519388 25.58499576 -23.625 23.1875 C-24.50188477 22.58711914 -24.50188477 22.58711914 -25.39648438 21.97460938 C-27.78031919 20.27029178 -29.56680938 18.90161594 -30.8203125 16.21484375 C-30.8125 14.375 -30.8125 14.375 -28.875 12.125 C-28.194375 11.5475 -27.51375 10.97 -26.8125 10.375 C-25.15234375 11.09114583 -23.4921875 11.80729167 -21.83203125 12.5234375 C-19.50420349 13.50499737 -17.16030342 14.44236652 -14.8125 15.375 C-14.14154297 14.50488281 -14.14154297 14.50488281 -13.45703125 13.6171875 C-12.20499571 11.99941876 -10.94689184 10.38633307 -9.68359375 8.77734375 C-8.57081537 7.34861994 -7.47336579 5.90739156 -6.41015625 4.44140625 C-3.41856902 0.4558092 -3.41856902 0.4558092 0 0 Z " fill="#261C52" transform="translate(194.8125,165.625)"/>
<path d="M0 0 C5.36598304 1.14015829 7.99878442 4.52976838 11 9 C11.80421901 11.49681949 11.94475037 13.34801775 12 16 C7.718484 17.54863345 3.62933451 18.48152364 -0.875 19.125 C-2.02742187 19.29257813 -3.17984375 19.46015625 -4.3671875 19.6328125 C-5.23601562 19.75398438 -6.10484375 19.87515625 -7 20 C-8.11083984 18.24316406 -8.11083984 18.24316406 -9 16 C-8.40087891 14.07714844 -8.40087891 14.07714844 -7.2265625 12.109375 C-6.6078125 11.04589844 -6.6078125 11.04589844 -5.9765625 9.9609375 C-5.53054687 9.23132813 -5.08453125 8.50171875 -4.625 7.75 C-4.18671875 7.00492188 -3.7484375 6.25984375 -3.296875 5.4921875 C-2.21220164 3.65295875 -1.10792483 1.82531676 0 0 Z " fill="#271D54" transform="translate(220,221)"/>
<path d="M0 0 C-1.63533988 1.37157538 -3.31337481 2.69200496 -5 4 C-5.62003906 4.52851563 -6.24007812 5.05703125 -6.87890625 5.6015625 C-12.60553832 10.05209424 -17.09920824 10.60774152 -24.27734375 10.40625 C-27 10 -27 10 -29 8 C-28.625 5.375 -28.625 5.375 -28 3 C-23.64058838 1.37018958 -19.76484913 0.65401097 -15.125 0.375 C-13.908125 0.30152344 -12.69125 0.22804687 -11.4375 0.15234375 C-7.61357696 -0.01712557 -3.8262688 -0.07652538 0 0 Z " fill="#251B52" transform="translate(236,199)"/>
</svg>
